<svg width="33" height="35" viewBox="0 0 33 35" fill="none" xmlns="http://www.w3.org/2000/svg">
<path d="M25.33 12.1601V8.14209C25.8615 7.89326 26.3116 7.49882 26.6279 7.00453C26.9443 6.51025 27.114 5.93638 27.1174 5.34953V5.25494C27.1151 4.43473 26.7884 3.64874 26.2086 3.06863C25.6287 2.48852 24.8429 2.16145 24.0227 2.15884H23.9281C23.1079 2.16107 22.3219 2.48779 21.7418 3.06764C21.1617 3.64748 20.8346 4.43332 20.832 5.25353V5.34812C20.8346 5.93172 21.0018 6.50273 21.3145 6.99549C21.6272 7.48826 22.0727 7.88276 22.5996 8.13362L22.6179 8.14209V12.1686C21.0817 12.4033 19.6352 13.0415 18.4263 14.0181L18.4432 14.0053L7.39155 5.39895C7.60175 4.61057 7.53198 3.7737 7.19413 3.03102C6.85628 2.28834 6.27128 1.68584 5.53887 1.32627C4.80647 0.966689 3.97201 0.872294 3.17779 1.05918C2.38357 1.24606 1.67876 1.70265 1.18355 2.3511C0.688334 2.99954 0.433379 3.79968 0.462156 4.61509C0.490932 5.43049 0.801659 6.21067 1.34135 6.82259C1.88105 7.43451 2.61629 7.84028 3.42171 7.97071C4.22713 8.10114 5.05285 7.94815 5.75809 7.53784L5.74115 7.54631L16.6064 16.0045C15.6458 17.4447 15.1357 19.1383 15.141 20.8696C15.141 22.7656 15.741 24.5233 16.7603 25.9606L16.742 25.9337L13.4355 29.2402C13.1708 29.1548 12.8948 29.1095 12.6167 29.1061H12.6138C12.0462 29.1061 11.4912 29.2744 11.0192 29.5898C10.5472 29.9052 10.1794 30.3534 9.96211 30.8779C9.74487 31.4024 9.68803 31.9795 9.79878 32.5362C9.90953 33.093 10.1829 33.6044 10.5843 34.0058C10.9857 34.4072 11.4971 34.6806 12.0539 34.7914C12.6107 34.9021 13.1878 34.8453 13.7122 34.628C14.2367 34.4108 14.685 34.0429 15.0003 33.5709C15.3157 33.0989 15.4841 32.544 15.4841 31.9763C15.4807 31.6908 15.4335 31.4075 15.3443 31.1363L15.3499 31.156L18.6211 27.8849C19.6872 28.6989 20.925 29.2591 22.2402 29.5227C23.5554 29.7863 24.9134 29.7465 26.2109 29.4062C27.5084 29.0659 28.7111 28.4342 29.7277 27.559C30.7442 26.6839 31.5478 25.5884 32.0772 24.3559C32.6066 23.1234 32.8479 21.7864 32.7827 20.4466C32.7175 19.1069 32.3476 17.7996 31.7011 16.6243C31.0546 15.449 30.1486 14.4367 29.0519 13.6643C27.9552 12.892 26.6968 12.3799 25.3724 12.1672L25.3216 12.1601H25.33ZM23.969 25.3987C23.0743 25.3964 22.2003 25.1291 21.4575 24.6304C20.7146 24.1317 20.1362 23.424 19.7954 22.5967C19.4545 21.7695 19.3665 20.8597 19.5424 19.9825C19.7183 19.1052 20.1503 18.2998 20.7838 17.6679C21.4172 17.036 22.2237 16.606 23.1014 16.4323C23.9791 16.2586 24.8886 16.3489 25.7151 16.6918C26.5415 17.0347 27.2477 17.6148 27.7446 18.3589C28.2414 19.103 28.5066 19.9777 28.5066 20.8724V20.8752C28.5066 22.0757 28.0297 23.2269 27.1809 24.0758C26.332 24.9246 25.1808 25.4015 23.9803 25.4015L23.969 25.3987Z" fill="#FF9D2A"/>
</svg>
