<svg width="1440" height="200" viewBox="0 0 1440 200" fill="none" xmlns="http://www.w3.org/2000/svg">
<g filter="url(#filter0_d_31981_88817)">
<path d="M308 26.3432C308 17.3823 308 12.9019 309.744 9.47932C311.278 6.46872 313.726 4.02103 316.736 2.48706C320.159 0.743164 324.639 0.743164 333.6 0.743164H473.4C482.361 0.743164 486.841 0.743164 490.264 2.48706C493.274 4.02103 495.722 6.46872 497.256 9.47932C499 12.9019 499 17.3823 499 26.3432V166.143C499 175.104 499 179.584 497.256 183.007C495.722 186.018 493.274 188.465 490.264 189.999C486.841 191.743 482.361 191.743 473.4 191.743H333.6C324.639 191.743 320.159 191.743 316.736 189.999C313.726 188.465 311.278 186.018 309.744 183.007C308 179.584 308 175.104 308 166.143V26.3432Z" fill="white" fill-opacity="0.8" shape-rendering="crispEdges"/>
<path d="M421.5 72.2432C421.5 75.4043 420.668 78.5098 419.087 81.2472C417.507 83.9847 415.233 86.2575 412.494 87.8371C409.756 89.4167 406.65 90.2473 403.489 90.2454C400.328 90.2435 397.223 89.4092 394.487 87.8263L387.476 90.1644C387.212 90.2526 386.928 90.2654 386.657 90.2014C386.386 90.1374 386.138 89.9991 385.941 89.8021C385.744 89.6051 385.606 89.3571 385.542 89.086C385.478 88.8148 385.491 88.5312 385.579 88.2669L387.917 81.2563C386.535 78.8658 385.721 76.1894 385.539 73.4341C385.357 70.6789 385.811 67.9187 386.867 65.3671C387.922 62.8155 389.55 60.5409 391.626 58.7193C393.701 56.8977 396.167 55.578 398.834 54.8623C401.501 54.1465 404.297 54.054 407.005 54.5917C409.714 55.1294 412.262 56.283 414.453 57.9633C416.644 59.6436 418.42 61.8054 419.642 64.2816C420.864 66.7578 421.499 69.4819 421.5 72.2432Z" fill="#1C1C1C" fill-opacity="0.1"/>
<path d="M403.5 52.7432C400.134 52.7424 396.824 53.6133 393.894 55.2711C390.964 56.9289 388.513 59.317 386.779 62.2031C385.046 65.0892 384.089 68.3749 384.003 71.7404C383.916 75.1059 384.702 78.4366 386.284 81.4082L384.156 87.7925C383.98 88.3211 383.954 88.8884 384.082 89.4307C384.21 89.973 384.487 90.4689 384.881 90.8629C385.275 91.2569 385.771 91.5334 386.313 91.6614C386.855 91.7894 387.422 91.7638 387.951 91.5875L394.335 89.4594C396.951 90.8504 399.848 91.6273 402.809 91.7312C405.769 91.835 408.714 91.2632 411.42 90.0589C414.126 88.8547 416.523 87.0497 418.427 84.7811C420.332 82.5124 421.694 79.8397 422.412 76.9658C423.129 74.0919 423.182 71.0923 422.567 68.1947C421.953 65.2972 420.686 62.5778 418.863 60.243C417.04 57.9082 414.709 56.0194 412.047 54.7199C409.385 53.4204 406.462 52.7444 403.5 52.7432ZM403.5 88.7432C400.6 88.7451 397.75 87.9813 395.239 86.5288C395.011 86.3966 394.753 86.3268 394.489 86.3263C394.328 86.3264 394.167 86.353 394.015 86.405L387 88.7432L389.338 81.7307C389.406 81.5292 389.43 81.3156 389.408 81.1042C389.387 80.8928 389.321 80.6884 389.215 80.5044C387.396 77.3599 386.666 73.703 387.137 70.1011C387.609 66.4992 389.256 63.1536 391.823 60.5833C394.39 58.013 397.734 56.3617 401.335 55.8855C404.936 55.4094 408.594 56.135 411.741 57.9498C414.888 59.7647 417.348 62.5672 418.739 65.9228C420.131 69.2784 420.376 72.9994 419.437 76.5086C418.498 80.0178 416.427 83.1189 413.545 85.3311C410.664 87.5432 407.133 88.7426 403.5 88.7432ZM405.75 72.2432C405.75 72.6882 405.618 73.1232 405.371 73.4932C405.124 73.8632 404.773 74.1516 404.361 74.3219C403.95 74.4922 403.498 74.5367 403.061 74.4499C402.625 74.3631 402.224 74.1488 401.909 73.8342C401.595 73.5195 401.38 73.1186 401.294 72.6821C401.207 72.2457 401.251 71.7933 401.422 71.3821C401.592 70.971 401.88 70.6196 402.25 70.3724C402.62 70.1251 403.055 69.9932 403.5 69.9932C404.097 69.9932 404.669 70.2302 405.091 70.6522C405.513 71.0741 405.75 71.6464 405.75 72.2432ZM397.5 72.2432C397.5 72.6882 397.368 73.1232 397.121 73.4932C396.874 73.8632 396.523 74.1516 396.111 74.3219C395.7 74.4922 395.248 74.5367 394.811 74.4499C394.375 74.3631 393.974 74.1488 393.659 73.8342C393.345 73.5195 393.13 73.1186 393.044 72.6821C392.957 72.2457 393.001 71.7933 393.172 71.3821C393.342 70.971 393.63 70.6196 394 70.3724C394.37 70.1251 394.805 69.9932 395.25 69.9932C395.847 69.9932 396.419 70.2302 396.841 70.6522C397.263 71.0741 397.5 71.6464 397.5 72.2432ZM414 72.2432C414 72.6882 413.868 73.1232 413.621 73.4932C413.374 73.8632 413.023 74.1516 412.611 74.3219C412.2 74.4922 411.748 74.5367 411.311 74.4499C410.875 74.3631 410.474 74.1488 410.159 73.8342C409.845 73.5195 409.63 73.1186 409.544 72.6821C409.457 72.2457 409.501 71.7933 409.672 71.3821C409.842 70.971 410.13 70.6196 410.5 70.3724C410.87 70.1251 411.305 69.9932 411.75 69.9932C412.347 69.9932 412.919 70.2302 413.341 70.6522C413.763 71.0741 414 71.6464 414 72.2432Z" fill="#1C1C1C" fill-opacity="0.4"/>
<path d="M379.089 112.353C379.02 112.111 378.922 111.897 378.796 111.711C378.67 111.522 378.516 111.363 378.334 111.234C378.155 111.101 377.949 111 377.717 110.931C377.489 110.861 377.235 110.826 376.957 110.826C376.436 110.826 375.979 110.956 375.585 111.214C375.193 111.473 374.888 111.849 374.67 112.343C374.451 112.833 374.342 113.433 374.342 114.142C374.342 114.852 374.449 115.455 374.665 115.952C374.88 116.449 375.185 116.829 375.58 117.09C375.974 117.349 376.44 117.478 376.977 117.478C377.464 117.478 377.88 117.392 378.224 117.22C378.572 117.044 378.838 116.797 379.02 116.479C379.205 116.161 379.298 115.785 379.298 115.35L379.736 115.415H377.111V113.794H381.371V115.077C381.371 115.972 381.183 116.741 380.805 117.384C380.427 118.023 379.906 118.517 379.244 118.865C378.581 119.21 377.822 119.382 376.967 119.382C376.012 119.382 375.174 119.172 374.451 118.751C373.728 118.327 373.165 117.725 372.761 116.946C372.36 116.164 372.159 115.236 372.159 114.162C372.159 113.337 372.278 112.601 372.517 111.955C372.759 111.305 373.097 110.755 373.531 110.304C373.965 109.853 374.471 109.51 375.048 109.275C375.624 109.04 376.249 108.922 376.922 108.922C377.499 108.922 378.036 109.007 378.533 109.176C379.03 109.341 379.471 109.577 379.855 109.882C380.243 110.187 380.559 110.55 380.805 110.97C381.05 111.388 381.207 111.849 381.277 112.353H379.089ZM386.429 119.392C385.643 119.392 384.967 119.233 384.4 118.915C383.837 118.594 383.403 118.139 383.098 117.553C382.793 116.963 382.64 116.265 382.64 115.46C382.64 114.674 382.793 113.985 383.098 113.392C383.403 112.798 383.832 112.336 384.385 112.005C384.942 111.673 385.595 111.507 386.344 111.507C386.848 111.507 387.317 111.589 387.751 111.751C388.189 111.91 388.57 112.15 388.895 112.472C389.223 112.793 389.478 113.198 389.66 113.685C389.843 114.169 389.934 114.736 389.934 115.385V115.967H383.486V114.654H387.94C387.94 114.349 387.874 114.079 387.741 113.844C387.609 113.609 387.425 113.425 387.189 113.292C386.957 113.156 386.687 113.088 386.379 113.088C386.058 113.088 385.773 113.163 385.524 113.312C385.279 113.458 385.086 113.655 384.947 113.904C384.808 114.149 384.737 114.422 384.733 114.724V115.972C384.733 116.35 384.803 116.676 384.942 116.951C385.085 117.226 385.285 117.438 385.544 117.588C385.802 117.737 386.109 117.811 386.464 117.811C386.699 117.811 386.914 117.778 387.11 117.712C387.305 117.646 387.473 117.546 387.612 117.414C387.751 117.281 387.857 117.119 387.93 116.926L389.889 117.056C389.79 117.526 389.586 117.937 389.278 118.289C388.973 118.637 388.578 118.908 388.094 119.104C387.614 119.296 387.059 119.392 386.429 119.392ZM393.434 114.828V119.243H391.316V111.607H393.334V112.954H393.424C393.593 112.51 393.876 112.159 394.274 111.9C394.672 111.638 395.154 111.507 395.721 111.507C396.251 111.507 396.713 111.623 397.108 111.855C397.502 112.087 397.809 112.419 398.028 112.85C398.246 113.277 398.356 113.788 398.356 114.381V119.243H396.238V114.759C396.241 114.291 396.122 113.927 395.88 113.665C395.638 113.4 395.305 113.267 394.881 113.267C394.595 113.267 394.344 113.329 394.125 113.451C393.909 113.574 393.74 113.753 393.618 113.988C393.498 114.22 393.437 114.5 393.434 114.828ZM403.505 119.392C402.719 119.392 402.043 119.233 401.477 118.915C400.913 118.594 400.479 118.139 400.174 117.553C399.869 116.963 399.717 116.265 399.717 115.46C399.717 114.674 399.869 113.985 400.174 113.392C400.479 112.798 400.908 112.336 401.462 112.005C402.018 111.673 402.671 111.507 403.42 111.507C403.924 111.507 404.393 111.589 404.827 111.751C405.265 111.91 405.646 112.15 405.971 112.472C406.299 112.793 406.554 113.198 406.737 113.685C406.919 114.169 407.01 114.736 407.01 115.385V115.967H400.562V114.654H405.016C405.016 114.349 404.95 114.079 404.817 113.844C404.685 113.609 404.501 113.425 404.266 113.292C404.034 113.156 403.763 113.088 403.455 113.088C403.134 113.088 402.849 113.163 402.6 113.312C402.355 113.458 402.163 113.655 402.023 113.904C401.884 114.149 401.813 114.422 401.81 114.724V115.972C401.81 116.35 401.879 116.676 402.018 116.951C402.161 117.226 402.362 117.438 402.62 117.588C402.879 117.737 403.185 117.811 403.54 117.811C403.775 117.811 403.991 117.778 404.186 117.712C404.382 117.646 404.549 117.546 404.688 117.414C404.827 117.281 404.933 117.119 405.006 116.926L406.965 117.056C406.866 117.526 406.662 117.937 406.354 118.289C406.049 118.637 405.654 118.908 405.17 119.104C404.69 119.296 404.135 119.392 403.505 119.392ZM408.392 119.243V111.607H410.445V112.939H410.525C410.664 112.465 410.898 112.107 411.226 111.865C411.554 111.62 411.932 111.497 412.359 111.497C412.465 111.497 412.58 111.504 412.702 111.517C412.825 111.531 412.933 111.549 413.026 111.572V113.451C412.926 113.421 412.789 113.395 412.613 113.372C412.437 113.349 412.277 113.337 412.131 113.337C411.819 113.337 411.541 113.405 411.295 113.541C411.054 113.673 410.861 113.859 410.719 114.098C410.58 114.336 410.51 114.611 410.51 114.923V119.243H408.392ZM416.579 119.367C415.999 119.367 415.474 119.218 415.003 118.92C414.536 118.618 414.164 118.176 413.889 117.593C413.618 117.006 413.482 116.287 413.482 115.435C413.482 114.56 413.623 113.832 413.904 113.252C414.186 112.669 414.561 112.233 415.028 111.945C415.499 111.653 416.014 111.507 416.574 111.507C417.002 111.507 417.358 111.58 417.643 111.726C417.931 111.869 418.163 112.048 418.339 112.263C418.518 112.475 418.654 112.684 418.747 112.889H418.811V111.607H420.924V119.243H418.836V118.02H418.747C418.647 118.232 418.506 118.443 418.324 118.652C418.145 118.857 417.911 119.028 417.623 119.164C417.338 119.3 416.99 119.367 416.579 119.367ZM417.25 117.682C417.592 117.682 417.88 117.589 418.115 117.404C418.354 117.215 418.536 116.951 418.662 116.613C418.791 116.275 418.856 115.879 418.856 115.425C418.856 114.971 418.793 114.576 418.667 114.242C418.541 113.907 418.359 113.648 418.12 113.466C417.882 113.284 417.592 113.193 417.25 113.193C416.902 113.193 416.609 113.287 416.37 113.476C416.132 113.665 415.951 113.927 415.828 114.262C415.706 114.596 415.644 114.984 415.644 115.425C415.644 115.869 415.706 116.262 415.828 116.603C415.954 116.941 416.135 117.206 416.37 117.399C416.609 117.588 416.902 117.682 417.25 117.682ZM426.727 111.607V113.198H422.129V111.607H426.727ZM423.173 109.777H425.29V116.897C425.29 117.092 425.32 117.245 425.38 117.354C425.44 117.46 425.522 117.535 425.629 117.578C425.738 117.621 425.864 117.642 426.006 117.642C426.106 117.642 426.205 117.634 426.305 117.617C426.404 117.598 426.48 117.583 426.533 117.573L426.866 119.149C426.76 119.182 426.611 119.22 426.419 119.263C426.227 119.309 425.993 119.338 425.718 119.348C425.208 119.367 424.76 119.3 424.376 119.144C423.995 118.988 423.698 118.746 423.486 118.418C423.274 118.09 423.169 117.675 423.173 117.175V109.777ZM431.505 119.392C430.719 119.392 430.043 119.233 429.477 118.915C428.913 118.594 428.479 118.139 428.174 117.553C427.869 116.963 427.717 116.265 427.717 115.46C427.717 114.674 427.869 113.985 428.174 113.392C428.479 112.798 428.908 112.336 429.462 112.005C430.018 111.673 430.671 111.507 431.42 111.507C431.924 111.507 432.393 111.589 432.827 111.751C433.265 111.91 433.646 112.15 433.971 112.472C434.299 112.793 434.554 113.198 434.737 113.685C434.919 114.169 435.01 114.736 435.01 115.385V115.967H428.562V114.654H433.016C433.016 114.349 432.95 114.079 432.817 113.844C432.685 113.609 432.501 113.425 432.266 113.292C432.034 113.156 431.763 113.088 431.455 113.088C431.134 113.088 430.849 113.163 430.6 113.312C430.355 113.458 430.163 113.655 430.023 113.904C429.884 114.149 429.813 114.422 429.81 114.724V115.972C429.81 116.35 429.879 116.676 430.018 116.951C430.161 117.226 430.362 117.438 430.62 117.588C430.879 117.737 431.185 117.811 431.54 117.811C431.775 117.811 431.991 117.778 432.186 117.712C432.382 117.646 432.549 117.546 432.688 117.414C432.827 117.281 432.933 117.119 433.006 116.926L434.965 117.056C434.866 117.526 434.662 117.937 434.354 118.289C434.049 118.637 433.654 118.908 433.17 119.104C432.69 119.296 432.135 119.392 431.505 119.392ZM368.422 139.243V131.607H370.476V132.939H370.555C370.694 132.465 370.928 132.107 371.256 131.865C371.584 131.62 371.962 131.497 372.39 131.497C372.496 131.497 372.61 131.504 372.733 131.517C372.855 131.531 372.963 131.549 373.056 131.572V133.451C372.956 133.421 372.819 133.395 372.643 133.372C372.468 133.349 372.307 133.337 372.161 133.337C371.849 133.337 371.571 133.405 371.326 133.541C371.084 133.673 370.892 133.859 370.749 134.098C370.61 134.336 370.54 134.611 370.54 134.923V139.243H368.422ZM377.275 139.392C376.49 139.392 375.814 139.233 375.247 138.915C374.684 138.594 374.249 138.139 373.945 137.553C373.64 136.963 373.487 136.265 373.487 135.46C373.487 134.674 373.64 133.985 373.945 133.392C374.249 132.798 374.679 132.336 375.232 132.005C375.789 131.673 376.442 131.507 377.191 131.507C377.695 131.507 378.164 131.589 378.598 131.751C379.035 131.91 379.417 132.15 379.741 132.472C380.07 132.793 380.325 133.198 380.507 133.685C380.689 134.169 380.78 134.736 380.78 135.385V135.967H374.332V134.654H378.787C378.787 134.349 378.721 134.079 378.588 133.844C378.455 133.609 378.271 133.425 378.036 133.292C377.804 133.156 377.534 133.088 377.226 133.088C376.904 133.088 376.619 133.163 376.371 133.312C376.125 133.458 375.933 133.655 375.794 133.904C375.655 134.149 375.583 134.422 375.58 134.724V135.972C375.58 136.35 375.65 136.676 375.789 136.951C375.931 137.226 376.132 137.438 376.391 137.588C376.649 137.737 376.956 137.811 377.31 137.811C377.546 137.811 377.761 137.778 377.957 137.712C378.152 137.646 378.32 137.546 378.459 137.414C378.598 137.281 378.704 137.119 378.777 136.926L380.736 137.056C380.636 137.526 380.432 137.937 380.124 138.289C379.819 138.637 379.425 138.908 378.941 139.104C378.46 139.296 377.905 139.392 377.275 139.392ZM388.516 133.784L386.577 133.904C386.544 133.738 386.473 133.589 386.364 133.456C386.254 133.32 386.11 133.213 385.931 133.133C385.755 133.05 385.545 133.009 385.3 133.009C384.972 133.009 384.695 133.078 384.469 133.218C384.244 133.353 384.131 133.536 384.131 133.764C384.131 133.947 384.204 134.101 384.35 134.227C384.496 134.353 384.746 134.454 385.101 134.53L386.483 134.809C387.225 134.961 387.779 135.206 388.143 135.544C388.508 135.882 388.69 136.326 388.69 136.877C388.69 137.377 388.543 137.816 388.248 138.194C387.956 138.572 387.555 138.867 387.045 139.079C386.538 139.288 385.953 139.392 385.29 139.392C384.279 139.392 383.473 139.182 382.873 138.761C382.277 138.337 381.927 137.76 381.824 137.031L383.908 136.921C383.971 137.23 384.123 137.465 384.365 137.627C384.607 137.786 384.917 137.866 385.295 137.866C385.666 137.866 385.964 137.795 386.19 137.652C386.418 137.506 386.534 137.319 386.538 137.09C386.534 136.898 386.453 136.741 386.294 136.618C386.135 136.492 385.89 136.396 385.558 136.33L384.236 136.066C383.49 135.917 382.935 135.659 382.57 135.291C382.209 134.923 382.028 134.454 382.028 133.884C382.028 133.393 382.161 132.971 382.426 132.616C382.695 132.261 383.071 131.988 383.555 131.796C384.042 131.603 384.612 131.507 385.265 131.507C386.229 131.507 386.988 131.711 387.542 132.119C388.099 132.527 388.423 133.082 388.516 133.784ZM390.024 142.107V131.607H392.112V132.889H392.206C392.299 132.684 392.433 132.475 392.609 132.263C392.788 132.048 393.02 131.869 393.305 131.726C393.593 131.58 393.951 131.507 394.379 131.507C394.936 131.507 395.45 131.653 395.92 131.945C396.391 132.233 396.767 132.669 397.049 133.252C397.33 133.832 397.471 134.56 397.471 135.435C397.471 136.287 397.334 137.006 397.059 137.593C396.787 138.176 396.416 138.618 395.945 138.92C395.478 139.218 394.954 139.367 394.374 139.367C393.963 139.367 393.613 139.3 393.325 139.164C393.04 139.028 392.806 138.857 392.624 138.652C392.442 138.443 392.303 138.232 392.206 138.02H392.142V142.107H390.024ZM392.097 135.425C392.097 135.879 392.16 136.275 392.286 136.613C392.412 136.951 392.594 137.215 392.833 137.404C393.071 137.589 393.361 137.682 393.703 137.682C394.048 137.682 394.339 137.588 394.578 137.399C394.816 137.206 394.997 136.941 395.12 136.603C395.246 136.262 395.309 135.869 395.309 135.425C395.309 134.984 395.247 134.596 395.125 134.262C395.002 133.927 394.821 133.665 394.583 133.476C394.344 133.287 394.051 133.193 393.703 133.193C393.358 133.193 393.066 133.284 392.828 133.466C392.593 133.648 392.412 133.907 392.286 134.242C392.16 134.576 392.097 134.971 392.097 135.425ZM402.334 139.392C401.561 139.392 400.893 139.228 400.33 138.9C399.77 138.569 399.337 138.108 399.032 137.518C398.727 136.925 398.575 136.237 398.575 135.455C398.575 134.666 398.727 133.977 399.032 133.387C399.337 132.793 399.77 132.333 400.33 132.005C400.893 131.673 401.561 131.507 402.334 131.507C403.106 131.507 403.772 131.673 404.332 132.005C404.896 132.333 405.33 132.793 405.635 133.387C405.94 133.977 406.092 134.666 406.092 135.455C406.092 136.237 405.94 136.925 405.635 137.518C405.33 138.108 404.896 138.569 404.332 138.9C403.772 139.228 403.106 139.392 402.334 139.392ZM402.343 137.752C402.695 137.752 402.988 137.652 403.223 137.453C403.459 137.251 403.636 136.976 403.755 136.628C403.878 136.28 403.939 135.884 403.939 135.44C403.939 134.996 403.878 134.6 403.755 134.252C403.636 133.904 403.459 133.629 403.223 133.426C402.988 133.224 402.695 133.123 402.343 133.123C401.989 133.123 401.691 133.224 401.449 133.426C401.21 133.629 401.029 133.904 400.907 134.252C400.787 134.6 400.728 134.996 400.728 135.44C400.728 135.884 400.787 136.28 400.907 136.628C401.029 136.976 401.21 137.251 401.449 137.453C401.691 137.652 401.989 137.752 402.343 137.752ZM409.587 134.828V139.243H407.469V131.607H409.488V132.954H409.577C409.746 132.51 410.03 132.159 410.427 131.9C410.825 131.638 411.307 131.507 411.874 131.507C412.404 131.507 412.867 131.623 413.261 131.855C413.656 132.087 413.962 132.419 414.181 132.85C414.4 133.277 414.509 133.788 414.509 134.381V139.243H412.391V134.759C412.394 134.291 412.275 133.927 412.033 133.665C411.791 133.4 411.458 133.267 411.034 133.267C410.749 133.267 410.497 133.329 410.278 133.451C410.063 133.574 409.894 133.753 409.771 133.988C409.652 134.22 409.59 134.5 409.587 134.828ZM422.532 133.784L420.593 133.904C420.56 133.738 420.489 133.589 420.379 133.456C420.27 133.32 420.126 133.213 419.947 133.133C419.771 133.05 419.561 133.009 419.315 133.009C418.987 133.009 418.71 133.078 418.485 133.218C418.26 133.353 418.147 133.536 418.147 133.764C418.147 133.947 418.22 134.101 418.366 134.227C418.512 134.353 418.762 134.454 419.116 134.53L420.498 134.809C421.241 134.961 421.794 135.206 422.159 135.544C422.524 135.882 422.706 136.326 422.706 136.877C422.706 137.377 422.558 137.816 422.263 138.194C421.972 138.572 421.571 138.867 421.06 139.079C420.553 139.288 419.968 139.392 419.305 139.392C418.294 139.392 417.489 139.182 416.889 138.761C416.293 138.337 415.943 137.76 415.84 137.031L417.923 136.921C417.986 137.23 418.139 137.465 418.381 137.627C418.623 137.786 418.932 137.866 419.31 137.866C419.681 137.866 419.98 137.795 420.205 137.652C420.434 137.506 420.55 137.319 420.553 137.09C420.55 136.898 420.469 136.741 420.31 136.618C420.15 136.492 419.905 136.396 419.574 136.33L418.251 136.066C417.506 135.917 416.95 135.659 416.586 135.291C416.225 134.923 416.044 134.454 416.044 133.884C416.044 133.393 416.177 132.971 416.442 132.616C416.71 132.261 417.086 131.988 417.57 131.796C418.057 131.603 418.628 131.507 419.28 131.507C420.245 131.507 421.004 131.711 421.557 132.119C422.114 132.527 422.439 133.082 422.532 133.784ZM427.52 139.392C426.734 139.392 426.058 139.233 425.491 138.915C424.928 138.594 424.494 138.139 424.189 137.553C423.884 136.963 423.731 136.265 423.731 135.46C423.731 134.674 423.884 133.985 424.189 133.392C424.494 132.798 424.923 132.336 425.476 132.005C426.033 131.673 426.686 131.507 427.435 131.507C427.939 131.507 428.408 131.589 428.842 131.751C429.28 131.91 429.661 132.15 429.986 132.472C430.314 132.793 430.569 133.198 430.751 133.685C430.933 134.169 431.025 134.736 431.025 135.385V135.967H424.576V134.654H429.031C429.031 134.349 428.965 134.079 428.832 133.844C428.7 133.609 428.516 133.425 428.28 133.292C428.048 133.156 427.778 133.088 427.47 133.088C427.148 133.088 426.863 133.163 426.615 133.312C426.37 133.458 426.177 133.655 426.038 133.904C425.899 134.149 425.828 134.422 425.824 134.724V135.972C425.824 136.35 425.894 136.676 426.033 136.951C426.176 137.226 426.376 137.438 426.635 137.588C426.893 137.737 427.2 137.811 427.554 137.811C427.79 137.811 428.005 137.778 428.201 137.712C428.396 137.646 428.564 137.546 428.703 137.414C428.842 137.281 428.948 137.119 429.021 136.926L430.98 137.056C430.88 137.526 430.677 137.937 430.368 138.289C430.063 138.637 429.669 138.908 429.185 139.104C428.705 139.296 428.149 139.392 427.52 139.392ZM438.76 133.784L436.821 133.904C436.788 133.738 436.717 133.589 436.608 133.456C436.498 133.32 436.354 133.213 436.175 133.133C435.999 133.05 435.789 133.009 435.544 133.009C435.216 133.009 434.939 133.078 434.714 133.218C434.488 133.353 434.375 133.536 434.375 133.764C434.375 133.947 434.448 134.101 434.594 134.227C434.74 134.353 434.99 134.454 435.345 134.53L436.727 134.809C437.469 134.961 438.023 135.206 438.388 135.544C438.752 135.882 438.934 136.326 438.934 136.877C438.934 137.377 438.787 137.816 438.492 138.194C438.2 138.572 437.799 138.867 437.289 139.079C436.782 139.288 436.197 139.392 435.534 139.392C434.523 139.392 433.718 139.182 433.118 138.761C432.521 138.337 432.171 137.76 432.069 137.031L434.152 136.921C434.215 137.23 434.367 137.465 434.609 137.627C434.851 137.786 435.161 137.866 435.539 137.866C435.91 137.866 436.208 137.795 436.434 137.652C436.662 137.506 436.778 137.319 436.782 137.09C436.778 136.898 436.697 136.741 436.538 136.618C436.379 136.492 436.134 136.396 435.802 136.33L434.48 136.066C433.734 135.917 433.179 135.659 432.814 135.291C432.453 134.923 432.272 134.454 432.272 133.884C432.272 133.393 432.405 132.971 432.67 132.616C432.939 132.261 433.315 131.988 433.799 131.796C434.286 131.603 434.856 131.507 435.509 131.507C436.473 131.507 437.232 131.711 437.786 132.119C438.343 132.527 438.668 133.082 438.76 133.784Z" fill="#1C1C1C" fill-opacity="0.4"/>
</g>
<g filter="url(#filter1_d_31981_88817)">
<path d="M519 26.3432C519 17.3823 519 12.9019 520.744 9.47932C522.278 6.46872 524.726 4.02103 527.736 2.48706C531.159 0.743164 535.639 0.743164 544.6 0.743164H684.4C693.361 0.743164 697.841 0.743164 701.264 2.48706C704.274 4.02103 706.722 6.46872 708.256 9.47932C710 12.9019 710 17.3823 710 26.3432V166.143C710 175.104 710 179.584 708.256 183.007C706.722 186.018 704.274 188.465 701.264 189.999C697.841 191.743 693.361 191.743 684.4 191.743H544.6C535.639 191.743 531.159 191.743 527.736 189.999C524.726 188.465 522.278 186.018 520.744 183.007C519 179.584 519 175.104 519 166.143V26.3432Z" fill="white" fill-opacity="0.8" shape-rendering="crispEdges"/>
<path d="M623.5 69.2432L604.439 88.3044C604.158 88.5855 603.776 88.7434 603.379 88.7434C602.981 88.7434 602.6 88.5855 602.318 88.3044L598.439 84.4307C598.158 84.1494 598 83.768 598 83.3704C598 82.9727 598.158 82.5913 598.439 82.31L617.5 63.2432L623.5 69.2432Z" fill="#1C1C1C" fill-opacity="0.1"/>
<path d="M637 76.7432C637 77.141 636.842 77.5225 636.561 77.8038C636.28 78.0851 635.898 78.2432 635.5 78.2432H632.5V81.2432C632.5 81.641 632.342 82.0225 632.061 82.3038C631.78 82.5851 631.398 82.7432 631 82.7432C630.603 82.7432 630.221 82.5851 629.94 82.3038C629.658 82.0225 629.5 81.641 629.5 81.2432V78.2432H626.5C626.103 78.2432 625.721 78.0851 625.44 77.8038C625.158 77.5225 625 77.141 625 76.7432C625 76.3453 625.158 75.9638 625.44 75.6825C625.721 75.4012 626.103 75.2432 626.5 75.2432H629.5V72.2432C629.5 71.8453 629.658 71.4638 629.94 71.1825C630.221 70.9012 630.603 70.7432 631 70.7432C631.398 70.7432 631.78 70.9012 632.061 71.1825C632.342 71.4638 632.5 71.8453 632.5 72.2432V75.2432H635.5C635.898 75.2432 636.28 75.4012 636.561 75.6825C636.842 75.9638 637 76.3453 637 76.7432ZM601 61.7432H604V64.7432C604 65.141 604.158 65.5225 604.44 65.8038C604.721 66.0851 605.103 66.2432 605.5 66.2432C605.898 66.2432 606.28 66.0851 606.561 65.8038C606.842 65.5225 607 65.141 607 64.7432V61.7432H610C610.398 61.7432 610.78 61.5851 611.061 61.3038C611.342 61.0225 611.5 60.641 611.5 60.2432C611.5 59.8453 611.342 59.4638 611.061 59.1825C610.78 58.9012 610.398 58.7432 610 58.7432H607V55.7432C607 55.3453 606.842 54.9638 606.561 54.6825C606.28 54.4012 605.898 54.2432 605.5 54.2432C605.103 54.2432 604.721 54.4012 604.44 54.6825C604.158 54.9638 604 55.3453 604 55.7432V58.7432H601C600.603 58.7432 600.221 58.9012 599.94 59.1825C599.658 59.4638 599.5 59.8453 599.5 60.2432C599.5 60.641 599.658 61.0225 599.94 61.3038C600.221 61.5851 600.603 61.7432 601 61.7432ZM625 84.2432H623.5V82.7432C623.5 82.3453 623.342 81.9638 623.061 81.6825C622.78 81.4012 622.398 81.2432 622 81.2432C621.603 81.2432 621.221 81.4012 620.94 81.6825C620.658 81.9638 620.5 82.3453 620.5 82.7432V84.2432H619C618.603 84.2432 618.221 84.4012 617.94 84.6825C617.658 84.9638 617.5 85.3453 617.5 85.7432C617.5 86.141 617.658 86.5225 617.94 86.8038C618.221 87.0851 618.603 87.2432 619 87.2432H620.5V88.7432C620.5 89.141 620.658 89.5225 620.94 89.8038C621.221 90.0851 621.603 90.2432 622 90.2432C622.398 90.2432 622.78 90.0851 623.061 89.8038C623.342 89.5225 623.5 89.141 623.5 88.7432V87.2432H625C625.398 87.2432 625.78 87.0851 626.061 86.8038C626.342 86.5225 626.5 86.141 626.5 85.7432C626.5 85.3453 626.342 84.9638 626.061 84.6825C625.78 84.4012 625.398 84.2432 625 84.2432ZM631.621 63.2432L605.5 89.3638C604.938 89.926 604.175 90.2418 603.38 90.2418C602.585 90.2418 601.822 89.926 601.259 89.3638L597.378 85.4863C597.099 85.2077 596.878 84.877 596.727 84.5129C596.577 84.1489 596.499 83.7588 596.499 83.3647C596.499 82.9707 596.577 82.5805 596.727 82.2165C596.878 81.8525 597.099 81.5217 597.378 81.2432L623.5 55.1225C623.779 54.8439 624.11 54.6229 624.474 54.472C624.838 54.3212 625.228 54.2436 625.622 54.2436C626.016 54.2436 626.406 54.3212 626.77 54.472C627.134 54.6229 627.465 54.8439 627.744 55.1225L631.621 59C631.9 59.2786 632.121 59.6094 632.272 59.9734C632.422 60.3374 632.5 60.7276 632.5 61.1216C632.5 61.5156 632.422 61.9058 632.272 62.2698C632.121 62.6338 631.9 62.9646 631.621 63.2432ZM621.378 69.2432L617.5 65.3638L599.5 83.3638L603.378 87.2432L621.378 69.2432ZM629.5 61.1225L625.621 57.2432L619.621 63.2432L623.5 67.1225L629.5 61.1225Z" fill="#1C1C1C" fill-opacity="0.4"/>
<path d="M581.903 111.99C581.863 111.589 581.692 111.277 581.39 111.055C581.089 110.833 580.68 110.722 580.162 110.722C579.811 110.722 579.515 110.772 579.273 110.871C579.031 110.967 578.845 111.101 578.716 111.274C578.59 111.446 578.527 111.642 578.527 111.86C578.52 112.043 578.558 112.202 578.641 112.338C578.727 112.474 578.845 112.591 578.994 112.691C579.143 112.787 579.316 112.871 579.511 112.944C579.707 113.014 579.916 113.073 580.138 113.123L581.052 113.342C581.497 113.441 581.904 113.574 582.275 113.74C582.647 113.905 582.968 114.109 583.24 114.351C583.512 114.593 583.722 114.878 583.871 115.206C584.024 115.534 584.102 115.911 584.105 116.335C584.102 116.958 583.943 117.498 583.628 117.956C583.316 118.41 582.865 118.763 582.275 119.014C581.689 119.263 580.981 119.387 580.153 119.387C579.331 119.387 578.615 119.261 578.005 119.009C577.398 118.758 576.924 118.385 576.583 117.891C576.245 117.394 576.068 116.779 576.051 116.046H578.134C578.157 116.388 578.255 116.673 578.427 116.902C578.603 117.127 578.837 117.298 579.128 117.414C579.423 117.526 579.756 117.583 580.128 117.583C580.492 117.583 580.809 117.53 581.077 117.424C581.349 117.318 581.559 117.17 581.709 116.981C581.858 116.792 581.932 116.575 581.932 116.33C581.932 116.101 581.864 115.909 581.729 115.753C581.596 115.597 581.4 115.465 581.142 115.355C580.887 115.246 580.573 115.147 580.202 115.057L579.094 114.779C578.235 114.57 577.557 114.243 577.06 113.799C576.563 113.355 576.316 112.757 576.319 112.005C576.316 111.388 576.48 110.849 576.812 110.389C577.146 109.928 577.605 109.568 578.189 109.31C578.772 109.051 579.435 108.922 580.177 108.922C580.933 108.922 581.593 109.051 582.156 109.31C582.723 109.568 583.164 109.928 583.479 110.389C583.793 110.849 583.956 111.383 583.966 111.99H581.903ZM590.41 115.992V111.607H592.528V119.243H590.495V117.856H590.415C590.243 118.304 589.956 118.663 589.555 118.935C589.157 119.207 588.672 119.343 588.098 119.343C587.588 119.343 587.139 119.227 586.751 118.995C586.363 118.763 586.06 118.433 585.841 118.005C585.626 117.578 585.516 117.066 585.513 116.469V111.607H587.631V116.091C587.634 116.542 587.755 116.898 587.994 117.16C588.233 117.422 588.552 117.553 588.953 117.553C589.209 117.553 589.447 117.495 589.669 117.379C589.891 117.259 590.07 117.084 590.206 116.852C590.346 116.62 590.413 116.333 590.41 115.992ZM594.222 119.243V111.607H596.241V112.954H596.33C596.489 112.507 596.754 112.154 597.126 111.895C597.497 111.637 597.941 111.507 598.458 111.507C598.982 111.507 599.427 111.638 599.795 111.9C600.163 112.159 600.408 112.51 600.531 112.954H600.611C600.766 112.517 601.048 112.167 601.456 111.905C601.867 111.64 602.352 111.507 602.912 111.507C603.625 111.507 604.203 111.734 604.648 112.188C605.095 112.639 605.319 113.279 605.319 114.108V119.243H603.206V114.525C603.206 114.101 603.093 113.783 602.868 113.571C602.642 113.358 602.361 113.252 602.023 113.252C601.638 113.252 601.338 113.375 601.123 113.62C600.907 113.862 600.8 114.182 600.8 114.58V119.243H598.746V114.48C598.746 114.106 598.639 113.808 598.423 113.585C598.211 113.363 597.931 113.252 597.583 113.252C597.348 113.252 597.135 113.312 596.947 113.431C596.761 113.547 596.613 113.711 596.504 113.924C596.395 114.132 596.34 114.378 596.34 114.659V119.243H594.222ZM606.992 119.243V111.607H609.01V112.954H609.1C609.259 112.507 609.524 112.154 609.895 111.895C610.266 111.637 610.71 111.507 611.227 111.507C611.751 111.507 612.197 111.638 612.565 111.9C612.933 112.159 613.178 112.51 613.301 112.954H613.38C613.536 112.517 613.818 112.167 614.225 111.905C614.636 111.64 615.122 111.507 615.682 111.507C616.395 111.507 616.973 111.734 617.417 112.188C617.865 112.639 618.088 113.279 618.088 114.108V119.243H615.975V114.525C615.975 114.101 615.863 113.783 615.637 113.571C615.412 113.358 615.13 113.252 614.792 113.252C614.408 113.252 614.108 113.375 613.892 113.62C613.677 113.862 613.569 114.182 613.569 114.58V119.243H611.516V114.48C611.516 114.106 611.408 113.808 611.193 113.585C610.981 113.363 610.7 113.252 610.352 113.252C610.117 113.252 609.905 113.312 609.716 113.431C609.53 113.547 609.383 113.711 609.274 113.924C609.164 114.132 609.11 114.378 609.11 114.659V119.243H606.992ZM622.575 119.367C621.995 119.367 621.47 119.218 620.999 118.92C620.532 118.618 620.161 118.176 619.885 117.593C619.614 117.006 619.478 116.287 619.478 115.435C619.478 114.56 619.619 113.832 619.9 113.252C620.182 112.669 620.557 112.233 621.024 111.945C621.495 111.653 622.01 111.507 622.57 111.507C622.998 111.507 623.354 111.58 623.639 111.726C623.927 111.869 624.159 112.048 624.335 112.263C624.514 112.475 624.65 112.684 624.743 112.889H624.807V111.607H626.92V119.243H624.832V118.02H624.743C624.643 118.232 624.502 118.443 624.32 118.652C624.141 118.857 623.907 119.028 623.619 119.164C623.334 119.3 622.986 119.367 622.575 119.367ZM623.246 117.682C623.588 117.682 623.876 117.589 624.111 117.404C624.35 117.215 624.532 116.951 624.658 116.613C624.787 116.275 624.852 115.879 624.852 115.425C624.852 114.971 624.789 114.576 624.663 114.242C624.537 113.907 624.355 113.648 624.116 113.466C623.878 113.284 623.588 113.193 623.246 113.193C622.898 113.193 622.605 113.287 622.366 113.476C622.128 113.665 621.947 113.927 621.824 114.262C621.702 114.596 621.64 114.984 621.64 115.425C621.64 115.869 621.702 116.262 621.824 116.603C621.95 116.941 622.131 117.206 622.366 117.399C622.605 117.588 622.898 117.682 623.246 117.682ZM628.662 119.243V111.607H630.715V112.939H630.794C630.934 112.465 631.167 112.107 631.495 111.865C631.824 111.62 632.201 111.497 632.629 111.497C632.735 111.497 632.849 111.504 632.972 111.517C633.095 111.531 633.202 111.549 633.295 111.572V113.451C633.196 113.421 633.058 113.395 632.882 113.372C632.707 113.349 632.546 113.337 632.4 113.337C632.089 113.337 631.81 113.405 631.565 113.541C631.323 113.673 631.131 113.859 630.988 114.098C630.849 114.336 630.779 114.611 630.779 114.923V119.243H628.662ZM634.39 119.243V111.607H636.508V119.243H634.39ZM635.454 110.622C635.139 110.622 634.869 110.518 634.644 110.309C634.422 110.097 634.311 109.844 634.311 109.549C634.311 109.257 634.422 109.007 634.644 108.798C634.869 108.586 635.139 108.48 635.454 108.48C635.769 108.48 636.037 108.586 636.259 108.798C636.485 109.007 636.597 109.257 636.597 109.549C636.597 109.844 636.485 110.097 636.259 110.309C636.037 110.518 635.769 110.622 635.454 110.622ZM638.165 119.243V117.98L641.903 113.352V113.297H638.294V111.607H644.454V112.984L640.944 117.498V117.553H644.583V119.243H638.165ZM649.464 119.392C648.678 119.392 648.002 119.233 647.436 118.915C646.872 118.594 646.438 118.139 646.133 117.553C645.828 116.963 645.676 116.265 645.676 115.46C645.676 114.674 645.828 113.985 646.133 113.392C646.438 112.798 646.867 112.336 647.421 112.005C647.977 111.673 648.63 111.507 649.379 111.507C649.883 111.507 650.352 111.589 650.786 111.751C651.224 111.91 651.605 112.15 651.93 112.472C652.258 112.793 652.513 113.198 652.695 113.685C652.878 114.169 652.969 114.736 652.969 115.385V115.967H646.521V114.654H650.975C650.975 114.349 650.909 114.079 650.776 113.844C650.644 113.609 650.46 113.425 650.225 113.292C649.993 113.156 649.722 113.088 649.414 113.088C649.093 113.088 648.808 113.163 648.559 113.312C648.314 113.458 648.122 113.655 647.982 113.904C647.843 114.149 647.772 114.422 647.769 114.724V115.972C647.769 116.35 647.838 116.676 647.977 116.951C648.12 117.226 648.32 117.438 648.579 117.588C648.838 117.737 649.144 117.811 649.499 117.811C649.734 117.811 649.95 117.778 650.145 117.712C650.341 117.646 650.508 117.546 650.647 117.414C650.786 117.281 650.892 117.119 650.965 116.926L652.924 117.056C652.825 117.526 652.621 117.937 652.313 118.289C652.008 118.637 651.613 118.908 651.129 119.104C650.649 119.296 650.094 119.392 649.464 119.392ZM573.769 139.243V131.607H575.887V139.243H573.769ZM574.833 130.622C574.518 130.622 574.248 130.518 574.023 130.309C573.8 130.097 573.689 129.844 573.689 129.549C573.689 129.257 573.8 129.007 574.023 128.798C574.248 128.586 574.518 128.48 574.833 128.48C575.148 128.48 575.416 128.586 575.638 128.798C575.864 129.007 575.976 129.257 575.976 129.549C575.976 129.844 575.864 130.097 575.638 130.309C575.416 130.518 575.148 130.622 574.833 130.622ZM579.701 134.828V139.243H577.583V131.607H579.602V132.954H579.691C579.86 132.51 580.144 132.159 580.542 131.9C580.939 131.638 581.422 131.507 581.988 131.507C582.519 131.507 582.981 131.623 583.375 131.855C583.77 132.087 584.076 132.419 584.295 132.85C584.514 133.277 584.623 133.788 584.623 134.381V139.243H582.505V134.759C582.509 134.291 582.389 133.927 582.147 133.665C581.905 133.4 581.572 133.267 581.148 133.267C580.863 133.267 580.611 133.329 580.392 133.451C580.177 133.574 580.008 133.753 579.885 133.988C579.766 134.22 579.705 134.5 579.701 134.828ZM590.354 131.607V133.198H585.756V131.607H590.354ZM586.8 129.777H588.917V136.897C588.917 137.092 588.947 137.245 589.007 137.354C589.067 137.46 589.149 137.535 589.256 137.578C589.365 137.621 589.491 137.642 589.633 137.642C589.733 137.642 589.832 137.634 589.932 137.617C590.031 137.598 590.107 137.583 590.16 137.573L590.493 139.149C590.387 139.182 590.238 139.22 590.046 139.263C589.854 139.309 589.62 139.338 589.345 139.348C588.835 139.367 588.387 139.3 588.003 139.144C587.622 138.988 587.325 138.746 587.113 138.418C586.901 138.09 586.796 137.675 586.8 137.175V129.777ZM595.132 139.392C594.346 139.392 593.67 139.233 593.104 138.915C592.54 138.594 592.106 138.139 591.801 137.553C591.496 136.963 591.344 136.265 591.344 135.46C591.344 134.674 591.496 133.985 591.801 133.392C592.106 132.798 592.535 132.336 593.089 132.005C593.645 131.673 594.298 131.507 595.047 131.507C595.551 131.507 596.02 131.589 596.454 131.751C596.892 131.91 597.273 132.15 597.598 132.472C597.926 132.793 598.181 133.198 598.363 133.685C598.546 134.169 598.637 134.736 598.637 135.385V135.967H592.189V134.654H596.643C596.643 134.349 596.577 134.079 596.444 133.844C596.312 133.609 596.128 133.425 595.893 133.292C595.661 133.156 595.39 133.088 595.082 133.088C594.761 133.088 594.476 133.163 594.227 133.312C593.982 133.458 593.79 133.655 593.65 133.904C593.511 134.149 593.44 134.422 593.437 134.724V135.972C593.437 136.35 593.506 136.676 593.645 136.951C593.788 137.226 593.988 137.438 594.247 137.588C594.506 137.737 594.812 137.811 595.167 137.811C595.402 137.811 595.617 137.778 595.813 137.712C596.009 137.646 596.176 137.546 596.315 137.414C596.454 137.281 596.56 137.119 596.633 136.926L598.592 137.056C598.493 137.526 598.289 137.937 597.981 138.289C597.676 138.637 597.281 138.908 596.797 139.104C596.317 139.296 595.762 139.392 595.132 139.392ZM600.019 139.243V131.607H602.072V132.939H602.152C602.291 132.465 602.525 132.107 602.853 131.865C603.181 131.62 603.559 131.497 603.986 131.497C604.092 131.497 604.207 131.504 604.329 131.517C604.452 131.531 604.56 131.549 604.653 131.572V133.451C604.553 133.421 604.416 133.395 604.24 133.372C604.064 133.349 603.903 133.337 603.758 133.337C603.446 133.337 603.168 133.405 602.922 133.541C602.68 133.673 602.488 133.859 602.346 134.098C602.206 134.336 602.137 134.611 602.137 134.923V139.243H600.019ZM608.206 139.367C607.626 139.367 607.101 139.218 606.63 138.92C606.163 138.618 605.791 138.176 605.516 137.593C605.245 137.006 605.109 136.287 605.109 135.435C605.109 134.56 605.25 133.832 605.531 133.252C605.813 132.669 606.188 132.233 606.655 131.945C607.125 131.653 607.641 131.507 608.201 131.507C608.629 131.507 608.985 131.58 609.27 131.726C609.558 131.869 609.79 132.048 609.966 132.263C610.145 132.475 610.281 132.684 610.374 132.889H610.438V131.607H612.551V139.243H610.463V138.02H610.374C610.274 138.232 610.133 138.443 609.951 138.652C609.772 138.857 609.538 139.028 609.25 139.164C608.965 139.3 608.617 139.367 608.206 139.367ZM608.877 137.682C609.219 137.682 609.507 137.589 609.742 137.404C609.981 137.215 610.163 136.951 610.289 136.613C610.418 136.275 610.483 135.879 610.483 135.425C610.483 134.971 610.42 134.576 610.294 134.242C610.168 133.907 609.986 133.648 609.747 133.466C609.509 133.284 609.219 133.193 608.877 133.193C608.529 133.193 608.236 133.287 607.997 133.476C607.759 133.665 607.578 133.927 607.455 134.262C607.333 134.596 607.271 134.984 607.271 135.425C607.271 135.869 607.333 136.262 607.455 136.603C607.581 136.941 607.762 137.206 607.997 137.399C608.236 137.588 608.529 137.682 608.877 137.682ZM617.743 139.392C616.961 139.392 616.288 139.227 615.724 138.895C615.164 138.56 614.733 138.096 614.432 137.503C614.133 136.91 613.984 136.227 613.984 135.455C613.984 134.673 614.135 133.987 614.437 133.397C614.742 132.803 615.174 132.341 615.734 132.009C616.294 131.675 616.961 131.507 617.733 131.507C618.399 131.507 618.982 131.628 619.483 131.87C619.983 132.112 620.379 132.452 620.671 132.889C620.963 133.327 621.123 133.841 621.153 134.431H619.155C619.098 134.05 618.949 133.743 618.707 133.511C618.469 133.276 618.155 133.158 617.768 133.158C617.439 133.158 617.153 133.247 616.907 133.426C616.666 133.602 616.477 133.859 616.341 134.197C616.205 134.535 616.137 134.944 616.137 135.425C616.137 135.912 616.203 136.326 616.336 136.668C616.472 137.009 616.662 137.269 616.907 137.448C617.153 137.627 617.439 137.717 617.768 137.717C618.01 137.717 618.227 137.667 618.419 137.568C618.614 137.468 618.775 137.324 618.901 137.135C619.03 136.943 619.115 136.713 619.155 136.444H621.153C621.12 137.027 620.961 137.541 620.676 137.985C620.394 138.426 620.005 138.771 619.508 139.019C619.01 139.268 618.422 139.392 617.743 139.392ZM626.571 131.607V133.198H621.972V131.607H626.571ZM623.016 129.777H625.134V136.897C625.134 137.092 625.164 137.245 625.224 137.354C625.283 137.46 625.366 137.535 625.472 137.578C625.582 137.621 625.708 137.642 625.85 137.642C625.95 137.642 626.049 137.634 626.148 137.617C626.248 137.598 626.324 137.583 626.377 137.573L626.71 139.149C626.604 139.182 626.455 139.22 626.263 139.263C626.071 139.309 625.837 139.338 625.562 139.348C625.051 139.367 624.604 139.3 624.219 139.144C623.838 138.988 623.542 138.746 623.33 138.418C623.117 138.09 623.013 137.675 623.016 137.175V129.777ZM627.951 139.243V131.607H630.069V139.243H627.951ZM629.015 130.622C628.7 130.622 628.43 130.518 628.204 130.309C627.982 130.097 627.871 129.844 627.871 129.549C627.871 129.257 627.982 129.007 628.204 128.798C628.43 128.586 628.7 128.48 629.015 128.48C629.329 128.48 629.598 128.586 629.82 128.798C630.045 129.007 630.158 129.257 630.158 129.549C630.158 129.844 630.045 130.097 629.82 130.309C629.598 130.518 629.329 130.622 629.015 130.622ZM635.215 139.392C634.443 139.392 633.775 139.228 633.212 138.9C632.652 138.569 632.219 138.108 631.914 137.518C631.609 136.925 631.457 136.237 631.457 135.455C631.457 134.666 631.609 133.977 631.914 133.387C632.219 132.793 632.652 132.333 633.212 132.005C633.775 131.673 634.443 131.507 635.215 131.507C635.988 131.507 636.654 131.673 637.214 132.005C637.777 132.333 638.212 132.793 638.517 133.387C638.821 133.977 638.974 134.666 638.974 135.455C638.974 136.237 638.821 136.925 638.517 137.518C638.212 138.108 637.777 138.569 637.214 138.9C636.654 139.228 635.988 139.392 635.215 139.392ZM635.225 137.752C635.577 137.752 635.87 137.652 636.105 137.453C636.341 137.251 636.518 136.976 636.637 136.628C636.76 136.28 636.821 135.884 636.821 135.44C636.821 134.996 636.76 134.6 636.637 134.252C636.518 133.904 636.341 133.629 636.105 133.426C635.87 133.224 635.577 133.123 635.225 133.123C634.871 133.123 634.572 133.224 634.33 133.426C634.092 133.629 633.911 133.904 633.789 134.252C633.669 134.6 633.61 134.996 633.61 135.44C633.61 135.884 633.669 136.28 633.789 136.628C633.911 136.976 634.092 137.251 634.33 137.453C634.572 137.652 634.871 137.752 635.225 137.752ZM642.469 134.828V139.243H640.351V131.607H642.369V132.954H642.459C642.628 132.51 642.911 132.159 643.309 131.9C643.707 131.638 644.189 131.507 644.756 131.507C645.286 131.507 645.749 131.623 646.143 131.855C646.537 132.087 646.844 132.419 647.063 132.85C647.281 133.277 647.391 133.788 647.391 134.381V139.243H645.273V134.759C645.276 134.291 645.157 133.927 644.915 133.665C644.673 133.4 644.34 133.267 643.916 133.267C643.631 133.267 643.379 133.329 643.16 133.451C642.945 133.574 642.776 133.753 642.653 133.988C642.534 134.22 642.472 134.5 642.469 134.828ZM655.414 133.784L653.475 133.904C653.442 133.738 653.37 133.589 653.261 133.456C653.152 133.32 653.007 133.213 652.828 133.133C652.653 133.05 652.442 133.009 652.197 133.009C651.869 133.009 651.592 133.078 651.367 133.218C651.141 133.353 651.029 133.536 651.029 133.764C651.029 133.947 651.102 134.101 651.248 134.227C651.393 134.353 651.644 134.454 651.998 134.53L653.38 134.809C654.123 134.961 654.676 135.206 655.041 135.544C655.405 135.882 655.588 136.326 655.588 136.877C655.588 137.377 655.44 137.816 655.145 138.194C654.854 138.572 654.453 138.867 653.942 139.079C653.435 139.288 652.85 139.392 652.187 139.392C651.176 139.392 650.371 139.182 649.771 138.761C649.174 138.337 648.825 137.76 648.722 137.031L650.805 136.921C650.868 137.23 651.02 137.465 651.262 137.627C651.504 137.786 651.814 137.866 652.192 137.866C652.563 137.866 652.862 137.795 653.087 137.652C653.316 137.506 653.432 137.319 653.435 137.09C653.432 136.898 653.35 136.741 653.191 136.618C653.032 136.492 652.787 136.396 652.456 136.33L651.133 136.066C650.387 135.917 649.832 135.659 649.468 135.291C649.106 134.923 648.926 134.454 648.926 133.884C648.926 133.393 649.058 132.971 649.324 132.616C649.592 132.261 649.968 131.988 650.452 131.796C650.939 131.603 651.509 131.507 652.162 131.507C653.127 131.507 653.886 131.711 654.439 132.119C654.996 132.527 655.321 133.082 655.414 133.784Z" fill="#1C1C1C" fill-opacity="0.4"/>
</g>
<g filter="url(#filter2_d_31981_88817)">
<path d="M730 26.3432C730 17.3823 730 12.9019 731.744 9.47932C733.278 6.46872 735.726 4.02103 738.736 2.48706C742.159 0.743164 746.639 0.743164 755.6 0.743164H895.4C904.361 0.743164 908.841 0.743164 912.264 2.48706C915.274 4.02103 917.722 6.46872 919.256 9.47932C921 12.9019 921 17.3823 921 26.3432V166.143C921 175.104 921 179.584 919.256 183.007C917.722 186.018 915.274 188.465 912.264 189.999C908.841 191.743 904.361 191.743 895.4 191.743H755.6C746.639 191.743 742.159 191.743 738.736 189.999C735.726 188.465 733.278 186.018 731.744 183.007C730 179.584 730 175.104 730 166.143V26.3432Z" fill="white" fill-opacity="0.8" shape-rendering="crispEdges"/>
<path d="M836.75 66.2432C835.755 66.2432 834.802 66.6383 834.098 67.3415C833.395 68.0448 833 68.9986 833 69.9932V59.4932C833 58.4986 832.605 57.5448 831.902 56.8415C831.198 56.1383 830.245 55.7432 829.25 55.7432C828.255 55.7432 827.302 56.1383 826.598 56.8415C825.895 57.5448 825.5 58.4986 825.5 59.4932V56.4932C825.5 55.4986 825.105 54.5448 824.402 53.8415C823.698 53.1383 822.745 52.7432 821.75 52.7432C820.755 52.7432 819.802 53.1383 819.098 53.8415C818.395 54.5448 818 55.4986 818 56.4932V62.4932C818 61.4986 817.605 60.5448 816.902 59.8415C816.198 59.1383 815.245 58.7432 814.25 58.7432C813.255 58.7432 812.302 59.1383 811.598 59.8415C810.895 60.5448 810.5 61.4986 810.5 62.4932V76.7432C810.5 80.7214 812.08 84.5367 814.893 87.3498C817.706 90.1628 821.522 91.7432 825.5 91.7432C829.478 91.7432 833.294 90.1628 836.107 87.3498C838.92 84.5367 840.5 80.7214 840.5 76.7432V69.9932C840.5 68.9986 840.105 68.0448 839.402 67.3415C838.698 66.6383 837.745 66.2432 836.75 66.2432ZM825.5 85.7432C819.5 85.7432 816.5 79.7432 816.5 79.7432C816.5 79.7432 819.5 73.7432 825.5 73.7432C831.5 73.7432 834.5 79.7432 834.5 79.7432C834.5 79.7432 831.5 85.7432 825.5 85.7432Z" fill="#1C1C1C" fill-opacity="0.1"/>
<path d="M836.75 64.7433C835.971 64.7422 835.203 64.9158 834.5 65.2514V59.4933C834.5 58.5835 834.263 57.6894 833.813 56.8986C833.363 56.1078 832.716 55.4475 831.934 54.9824C831.152 54.5173 830.262 54.2634 829.353 54.2456C828.443 54.2278 827.545 54.4467 826.745 54.8808C826.36 53.6912 825.563 52.6781 824.498 52.0237C823.433 51.3693 822.169 51.1165 820.934 51.3109C819.699 51.5053 818.574 52.1341 817.761 53.0841C816.948 54.0341 816.501 55.243 816.5 56.4933V57.7514C815.797 57.4158 815.029 57.2422 814.25 57.2433C812.858 57.2433 811.522 57.7964 810.538 58.781C809.553 59.7655 809 61.1009 809 62.4933V76.7433C809 81.1193 810.738 85.3162 813.833 88.4105C816.927 91.5049 821.124 93.2433 825.5 93.2433C829.876 93.2433 834.073 91.5049 837.167 88.4105C840.262 85.3162 842 81.1193 842 76.7433V69.9933C842 68.6009 841.447 67.2655 840.462 66.281C839.478 65.2964 838.142 64.7433 836.75 64.7433ZM839 76.7433C839 80.3237 837.578 83.7575 835.046 86.2892C832.514 88.821 829.08 90.2433 825.5 90.2433C821.92 90.2433 818.486 88.821 815.954 86.2892C813.422 83.7575 812 80.3237 812 76.7433V62.4933C812 61.8965 812.237 61.3242 812.659 60.9023C813.081 60.4803 813.653 60.2433 814.25 60.2433C814.847 60.2433 815.419 60.4803 815.841 60.9023C816.263 61.3242 816.5 61.8965 816.5 62.4933V69.2433C816.5 69.6411 816.658 70.0226 816.939 70.3039C817.221 70.5852 817.602 70.7433 818 70.7433C818.398 70.7433 818.779 70.5852 819.061 70.3039C819.342 70.0226 819.5 69.6411 819.5 69.2433V56.4933C819.5 55.8965 819.737 55.3242 820.159 54.9023C820.581 54.4803 821.153 54.2433 821.75 54.2433C822.347 54.2433 822.919 54.4803 823.341 54.9023C823.763 55.3242 824 55.8965 824 56.4933V67.7433C824 68.1411 824.158 68.5226 824.439 68.8039C824.721 69.0852 825.102 69.2433 825.5 69.2433C825.898 69.2433 826.279 69.0852 826.561 68.8039C826.842 68.5226 827 68.1411 827 67.7433V59.4933C827 58.8965 827.237 58.3242 827.659 57.9023C828.081 57.4803 828.653 57.2433 829.25 57.2433C829.847 57.2433 830.419 57.4803 830.841 57.9023C831.263 58.3242 831.5 58.8965 831.5 59.4933V70.7433C831.5 71.1411 831.658 71.5226 831.939 71.8039C832.221 72.0852 832.602 72.2433 833 72.2433C833.398 72.2433 833.779 72.0852 834.061 71.8039C834.342 71.5226 834.5 71.1411 834.5 70.7433V69.9933C834.5 69.3965 834.737 68.8242 835.159 68.4023C835.581 67.9803 836.153 67.7433 836.75 67.7433C837.347 67.7433 837.919 67.9803 838.341 68.4023C838.763 68.8242 839 69.3965 839 69.9933V76.7433ZM827.75 79.7433C827.75 80.1883 827.618 80.6233 827.371 80.9933C827.124 81.3633 826.772 81.6517 826.361 81.822C825.95 81.9923 825.498 82.0369 825.061 81.95C824.625 81.8632 824.224 81.6489 823.909 81.3343C823.594 81.0196 823.38 80.6187 823.293 80.1822C823.206 79.7458 823.251 79.2934 823.421 78.8822C823.592 78.4711 823.88 78.1197 824.25 77.8725C824.62 77.6252 825.055 77.4933 825.5 77.4933C826.097 77.4933 826.669 77.7303 827.091 78.1523C827.513 78.5742 827.75 79.1465 827.75 79.7433ZM825.5 72.2433C818.653 72.2433 815.298 78.7945 815.157 79.072C815.053 79.2804 814.999 79.5102 814.999 79.7433C814.999 79.9763 815.053 80.2061 815.157 80.4145C815.298 80.692 818.653 87.2433 825.5 87.2433C832.347 87.2433 835.702 80.692 835.843 80.4145C835.947 80.2061 836.001 79.9763 836.001 79.7433C836.001 79.5102 835.947 79.2804 835.843 79.072C835.702 78.7945 832.347 72.2433 825.5 72.2433ZM825.5 84.2433C821.632 84.2433 819.163 81.1458 818.244 79.7433C819.163 78.3408 821.632 75.2433 825.5 75.2433C829.368 75.2433 831.839 78.3426 832.756 79.7433C831.837 81.1458 829.368 84.2433 825.5 84.2433Z" fill="#1C1C1C" fill-opacity="0.4"/>
<path d="M804.496 119.243V109.061H811.357V110.836H806.649V113.262H811.004V115.037H806.649V117.468H811.377V119.243H804.496ZM815.147 114.828V119.243H813.029V111.607H815.047V112.954H815.137C815.306 112.51 815.589 112.159 815.987 111.9C816.385 111.638 816.867 111.507 817.434 111.507C817.964 111.507 818.426 111.623 818.821 111.855C819.215 112.087 819.522 112.419 819.74 112.85C819.959 113.277 820.069 113.788 820.069 114.381V119.243H817.951V114.759C817.954 114.291 817.835 113.927 817.593 113.665C817.351 113.4 817.018 113.267 816.593 113.267C816.308 113.267 816.056 113.329 815.838 113.451C815.622 113.574 815.453 113.753 815.331 113.988C815.211 114.22 815.15 114.5 815.147 114.828ZM821.738 119.243V111.607H823.791V112.939H823.871C824.01 112.465 824.243 112.107 824.572 111.865C824.9 111.62 825.278 111.497 825.705 111.497C825.811 111.497 825.925 111.504 826.048 111.517C826.171 111.531 826.278 111.549 826.371 111.572V113.451C826.272 113.421 826.134 113.395 825.959 113.372C825.783 113.349 825.622 113.337 825.476 113.337C825.165 113.337 824.886 113.405 824.641 113.541C824.399 113.673 824.207 113.859 824.064 114.098C823.925 114.336 823.856 114.611 823.856 114.923V119.243H821.738ZM827.466 119.243V111.607H829.584V119.243H827.466ZM828.53 110.622C828.215 110.622 827.945 110.518 827.72 110.309C827.498 110.097 827.387 109.844 827.387 109.549C827.387 109.257 827.498 109.007 827.72 108.798C827.945 108.586 828.215 108.48 828.53 108.48C828.845 108.48 829.114 108.586 829.336 108.798C829.561 109.007 829.674 109.257 829.674 109.549C829.674 109.844 829.561 110.097 829.336 110.309C829.114 110.518 828.845 110.622 828.53 110.622ZM834.731 119.392C833.949 119.392 833.276 119.227 832.713 118.895C832.152 118.56 831.722 118.096 831.42 117.503C831.122 116.91 830.972 116.227 830.972 115.455C830.972 114.673 831.123 113.987 831.425 113.397C831.73 112.803 832.162 112.341 832.722 112.009C833.283 111.675 833.949 111.507 834.721 111.507C835.387 111.507 835.971 111.628 836.471 111.87C836.972 112.112 837.368 112.452 837.659 112.889C837.951 113.327 838.112 113.841 838.142 114.431H836.143C836.087 114.05 835.937 113.743 835.695 113.511C835.457 113.276 835.144 113.158 834.756 113.158C834.428 113.158 834.141 113.247 833.896 113.426C833.654 113.602 833.465 113.859 833.329 114.197C833.193 114.535 833.125 114.944 833.125 115.425C833.125 115.912 833.191 116.326 833.324 116.668C833.46 117.009 833.651 117.269 833.896 117.448C834.141 117.627 834.428 117.717 834.756 117.717C834.998 117.717 835.215 117.667 835.407 117.568C835.603 117.468 835.763 117.324 835.889 117.135C836.019 116.943 836.103 116.713 836.143 116.444H838.142C838.108 117.027 837.949 117.541 837.664 117.985C837.383 118.426 836.993 118.771 836.496 119.019C835.999 119.268 835.41 119.392 834.731 119.392ZM841.615 114.828V119.243H839.498V109.061H841.556V112.954H841.645C841.818 112.503 842.096 112.15 842.48 111.895C842.865 111.637 843.347 111.507 843.927 111.507C844.458 111.507 844.92 111.623 845.314 111.855C845.712 112.084 846.02 112.414 846.239 112.845C846.461 113.272 846.57 113.784 846.567 114.381V119.243H844.449V114.759C844.453 114.288 844.333 113.922 844.091 113.66C843.853 113.398 843.518 113.267 843.087 113.267C842.799 113.267 842.543 113.329 842.321 113.451C842.103 113.574 841.93 113.753 841.804 113.988C841.682 114.22 841.619 114.5 841.615 114.828ZM799.198 139.392C798.416 139.392 797.743 139.227 797.179 138.895C796.619 138.56 796.188 138.096 795.887 137.503C795.588 136.91 795.439 136.227 795.439 135.455C795.439 134.673 795.59 133.987 795.892 133.397C796.197 132.803 796.629 132.341 797.189 132.009C797.749 131.675 798.416 131.507 799.188 131.507C799.854 131.507 800.437 131.628 800.938 131.87C801.438 132.112 801.834 132.452 802.126 132.889C802.418 133.327 802.578 133.841 802.608 134.431H800.61C800.553 134.05 800.404 133.743 800.162 133.511C799.924 133.276 799.61 133.158 799.223 133.158C798.895 133.158 798.608 133.247 798.363 133.426C798.121 133.602 797.932 133.859 797.796 134.197C797.66 134.535 797.592 134.944 797.592 135.425C797.592 135.912 797.658 136.326 797.791 136.668C797.927 137.009 798.117 137.269 798.363 137.448C798.608 137.627 798.895 137.717 799.223 137.717C799.465 137.717 799.682 137.667 799.874 137.568C800.069 137.468 800.23 137.324 800.356 137.135C800.485 136.943 800.57 136.713 800.61 136.444H802.608C802.575 137.027 802.416 137.541 802.131 137.985C801.849 138.426 801.46 138.771 800.963 139.019C800.466 139.268 799.877 139.392 799.198 139.392ZM807.415 139.392C806.642 139.392 805.974 139.228 805.411 138.9C804.851 138.569 804.418 138.108 804.113 137.518C803.809 136.925 803.656 136.237 803.656 135.455C803.656 134.666 803.809 133.977 804.113 133.387C804.418 132.793 804.851 132.333 805.411 132.005C805.974 131.673 806.642 131.507 807.415 131.507C808.187 131.507 808.853 131.673 809.413 132.005C809.977 132.333 810.411 132.793 810.716 133.387C811.021 133.977 811.173 134.666 811.173 135.455C811.173 136.237 811.021 136.925 810.716 137.518C810.411 138.108 809.977 138.569 809.413 138.9C808.853 139.228 808.187 139.392 807.415 139.392ZM807.425 137.752C807.776 137.752 808.069 137.652 808.305 137.453C808.54 137.251 808.717 136.976 808.836 136.628C808.959 136.28 809.02 135.884 809.02 135.44C809.02 134.996 808.959 134.6 808.836 134.252C808.717 133.904 808.54 133.629 808.305 133.426C808.069 133.224 807.776 133.123 807.425 133.123C807.07 133.123 806.772 133.224 806.53 133.426C806.291 133.629 806.11 133.904 805.988 134.252C805.868 134.6 805.809 134.996 805.809 135.44C805.809 135.884 805.868 136.28 805.988 136.628C806.11 136.976 806.291 137.251 806.53 137.453C806.772 137.652 807.07 137.752 807.425 137.752ZM814.668 134.828V139.243H812.55V131.607H814.569V132.954H814.658C814.827 132.51 815.111 132.159 815.508 131.9C815.906 131.638 816.388 131.507 816.955 131.507C817.485 131.507 817.948 131.623 818.342 131.855C818.737 132.087 819.043 132.419 819.262 132.85C819.481 133.277 819.59 133.788 819.59 134.381V139.243H817.472V134.759C817.475 134.291 817.356 133.927 817.114 133.665C816.872 133.4 816.539 133.267 816.115 133.267C815.83 133.267 815.578 133.329 815.359 133.451C815.144 133.574 814.975 133.753 814.852 133.988C814.733 134.22 814.671 134.5 814.668 134.828ZM825.321 131.607V133.198H820.722V131.607H825.321ZM821.766 129.777H823.884V136.897C823.884 137.092 823.914 137.245 823.974 137.354C824.033 137.46 824.116 137.535 824.222 137.578C824.332 137.621 824.458 137.642 824.6 137.642C824.7 137.642 824.799 137.634 824.898 137.617C824.998 137.598 825.074 137.583 825.127 137.573L825.46 139.149C825.354 139.182 825.205 139.22 825.013 139.263C824.821 139.309 824.587 139.338 824.312 139.348C823.801 139.367 823.354 139.3 822.969 139.144C822.588 138.988 822.292 138.746 822.08 138.418C821.867 138.09 821.763 137.675 821.766 137.175V129.777ZM829.433 139.367C828.853 139.367 828.327 139.218 827.857 138.92C827.389 138.618 827.018 138.176 826.743 137.593C826.471 137.006 826.335 136.287 826.335 135.435C826.335 134.56 826.476 133.832 826.758 133.252C827.04 132.669 827.414 132.233 827.881 131.945C828.352 131.653 828.867 131.507 829.428 131.507C829.855 131.507 830.211 131.58 830.496 131.726C830.785 131.869 831.017 132.048 831.192 132.263C831.371 132.475 831.507 132.684 831.6 132.889H831.665V131.607H833.778V139.243H831.69V138.02H831.6C831.501 138.232 831.36 138.443 831.178 138.652C830.999 138.857 830.765 139.028 830.477 139.164C830.192 139.3 829.844 139.367 829.433 139.367ZM830.104 137.682C830.445 137.682 830.733 137.589 830.969 137.404C831.207 137.215 831.39 136.951 831.516 136.613C831.645 136.275 831.71 135.879 831.71 135.425C831.71 134.971 831.647 134.576 831.521 134.242C831.395 133.907 831.212 133.648 830.974 133.466C830.735 133.284 830.445 133.193 830.104 133.193C829.756 133.193 829.462 133.287 829.224 133.476C828.985 133.665 828.804 133.927 828.682 134.262C828.559 134.596 828.498 134.984 828.498 135.425C828.498 135.869 828.559 136.262 828.682 136.603C828.808 136.941 828.988 137.206 829.224 137.399C829.462 137.588 829.756 137.682 830.104 137.682ZM838.969 139.392C838.187 139.392 837.514 139.227 836.951 138.895C836.391 138.56 835.96 138.096 835.658 137.503C835.36 136.91 835.211 136.227 835.211 135.455C835.211 134.673 835.362 133.987 835.663 133.397C835.968 132.803 836.401 132.341 836.961 132.009C837.521 131.675 838.187 131.507 838.959 131.507C839.626 131.507 840.209 131.628 840.709 131.87C841.21 132.112 841.606 132.452 841.898 132.889C842.189 133.327 842.35 133.841 842.38 134.431H840.381C840.325 134.05 840.176 133.743 839.934 133.511C839.695 133.276 839.382 133.158 838.994 133.158C838.666 133.158 838.379 133.247 838.134 133.426C837.892 133.602 837.703 133.859 837.567 134.197C837.431 134.535 837.363 134.944 837.363 135.425C837.363 135.912 837.43 136.326 837.562 136.668C837.698 137.009 837.889 137.269 838.134 137.448C838.379 137.627 838.666 137.717 838.994 137.717C839.236 137.717 839.453 137.667 839.645 137.568C839.841 137.468 840.002 137.324 840.128 137.135C840.257 136.943 840.341 136.713 840.381 136.444H842.38C842.347 137.027 842.188 137.541 841.903 137.985C841.621 138.426 841.231 138.771 840.734 139.019C840.237 139.268 839.649 139.392 838.969 139.392ZM847.798 131.607V133.198H843.199V131.607H847.798ZM844.243 129.777H846.361V136.897C846.361 137.092 846.391 137.245 846.45 137.354C846.51 137.46 846.593 137.535 846.699 137.578C846.808 137.621 846.934 137.642 847.077 137.642C847.176 137.642 847.276 137.634 847.375 137.617C847.474 137.598 847.551 137.583 847.604 137.573L847.937 139.149C847.831 139.182 847.682 139.22 847.489 139.263C847.297 139.309 847.063 139.338 846.788 139.348C846.278 139.367 845.83 139.3 845.446 139.144C845.065 138.988 844.768 138.746 844.556 138.418C844.344 138.09 844.24 137.675 844.243 137.175V129.777ZM855.435 133.784L853.496 133.904C853.463 133.738 853.392 133.589 853.282 133.456C853.173 133.32 853.029 133.213 852.85 133.133C852.674 133.05 852.464 133.009 852.219 133.009C851.89 133.009 851.614 133.078 851.388 133.218C851.163 133.353 851.05 133.536 851.05 133.764C851.05 133.947 851.123 134.101 851.269 134.227C851.415 134.353 851.665 134.454 852.02 134.53L853.402 134.809C854.144 134.961 854.698 135.206 855.062 135.544C855.427 135.882 855.609 136.326 855.609 136.877C855.609 137.377 855.462 137.816 855.167 138.194C854.875 138.572 854.474 138.867 853.964 139.079C853.456 139.288 852.872 139.392 852.209 139.392C851.198 139.392 850.392 139.182 849.792 138.761C849.196 138.337 848.846 137.76 848.743 137.031L850.827 136.921C850.89 137.23 851.042 137.465 851.284 137.627C851.526 137.786 851.836 137.866 852.214 137.866C852.585 137.866 852.883 137.795 853.108 137.652C853.337 137.506 853.453 137.319 853.456 137.09C853.453 136.898 853.372 136.741 853.213 136.618C853.054 136.492 852.809 136.396 852.477 136.33L851.155 136.066C850.409 135.917 849.854 135.659 849.489 135.291C849.128 134.923 848.947 134.454 848.947 133.884C848.947 133.393 849.08 132.971 849.345 132.616C849.613 132.261 849.99 131.988 850.474 131.796C850.961 131.603 851.531 131.507 852.184 131.507C853.148 131.507 853.907 131.711 854.461 132.119C855.018 132.527 855.342 133.082 855.435 133.784Z" fill="#1C1C1C" fill-opacity="0.4"/>
</g>
<g filter="url(#filter3_d_31981_88817)">
<path d="M941 26.3432C941 17.3823 941 12.9019 942.744 9.47932C944.278 6.46872 946.726 4.02103 949.736 2.48706C953.159 0.743164 957.639 0.743164 966.6 0.743164H1106.4C1115.36 0.743164 1119.84 0.743164 1123.26 2.48706C1126.27 4.02103 1128.72 6.46872 1130.26 9.47932C1132 12.9019 1132 17.3823 1132 26.3432V166.143C1132 175.104 1132 179.584 1130.26 183.007C1128.72 186.018 1126.27 188.465 1123.26 189.999C1119.84 191.743 1115.36 191.743 1106.4 191.743H966.6C957.639 191.743 953.159 191.743 949.736 189.999C946.726 188.465 944.278 186.018 942.744 183.007C941 179.584 941 175.104 941 166.143V26.3432Z" fill="white" fill-opacity="0.8" shape-rendering="crispEdges"/>
<path d="M1057.5 72.2432C1057.5 76.2214 1055.92 80.0367 1053.11 82.8498C1050.29 85.6628 1046.48 87.2432 1042.5 87.2432H1026C1024.51 87.2413 1023.04 86.9229 1021.68 86.309C1020.33 85.6951 1019.12 84.7997 1018.13 83.6824C1017.15 82.565 1016.41 81.2512 1015.98 79.8281C1015.54 78.405 1015.41 76.9051 1015.6 75.428C1015.78 73.9509 1016.28 72.5303 1017.06 71.2606C1017.84 69.9908 1018.87 68.9009 1020.1 68.0632C1021.34 67.2254 1022.73 66.659 1024.2 66.4014C1025.66 66.1439 1027.17 66.2012 1028.61 66.5694V66.5882C1029.92 63.3686 1032.31 60.705 1035.37 59.0528C1038.43 57.4006 1041.97 56.8625 1045.38 57.5304C1048.79 58.1983 1051.87 60.0307 1054.08 62.7144C1056.29 65.3981 1057.5 68.7663 1057.5 72.2432Z" fill="#1C1C1C" fill-opacity="0.1"/>
<path d="M1059 72.2432C1059.01 75.8154 1057.85 79.2927 1055.7 82.145C1055.58 82.3026 1055.43 82.4353 1055.26 82.5356C1055.09 82.6359 1054.91 82.7017 1054.71 82.7294C1054.52 82.7571 1054.32 82.7461 1054.13 82.6969C1053.93 82.6478 1053.76 82.5616 1053.6 82.4432C1053.44 82.3247 1053.31 82.1764 1053.21 82.0067C1053.11 81.837 1053.04 81.6491 1053.01 81.454C1052.99 81.2588 1053 81.0601 1053.05 80.8692C1053.1 80.6782 1053.18 80.4989 1053.3 80.3413C1055.06 78.0092 1056.01 75.165 1056 72.2432C1056 68.6627 1054.58 65.229 1052.05 62.6972C1049.51 60.1655 1046.08 58.7432 1042.5 58.7432C1038.92 58.7432 1035.49 60.1655 1032.95 62.6972C1030.42 65.229 1029 68.6627 1029 72.2432C1029 72.641 1028.84 73.0225 1028.56 73.3038C1028.28 73.5851 1027.9 73.7432 1027.5 73.7432C1027.1 73.7432 1026.72 73.5851 1026.44 73.3038C1026.16 73.0225 1026 72.641 1026 72.2432C1026 70.7294 1026.21 69.2228 1026.62 67.7657C1026.41 67.7432 1026.21 67.7432 1026 67.7432C1023.61 67.7432 1021.32 68.6914 1019.64 70.3792C1017.95 72.067 1017 74.3562 1017 76.7432C1017 79.1301 1017.95 81.4193 1019.64 83.1071C1021.32 84.7949 1023.61 85.7432 1026 85.7432H1030.5C1030.9 85.7432 1031.28 85.9012 1031.56 86.1825C1031.84 86.4638 1032 86.8453 1032 87.2432C1032 87.641 1031.84 88.0225 1031.56 88.3038C1031.28 88.5851 1030.9 88.7432 1030.5 88.7432H1026C1024.35 88.7435 1022.72 88.4038 1021.21 87.7451C1019.69 87.0864 1018.33 86.1229 1017.21 84.9149C1016.09 83.7068 1015.22 82.2801 1014.68 80.7238C1014.13 79.1676 1013.91 77.5152 1014.03 75.8699C1014.15 74.2246 1014.61 72.6217 1015.37 71.1614C1016.14 69.701 1017.2 68.4146 1018.49 67.3824C1019.78 66.3502 1021.26 65.5944 1022.85 65.1622C1024.45 64.7301 1026.11 64.6308 1027.74 64.8707C1029.4 61.5466 1032.14 58.8809 1035.51 57.3055C1038.87 55.73 1042.67 55.337 1046.29 56.1902C1049.9 57.0433 1053.13 59.0926 1055.44 62.0061C1057.74 64.9196 1059 68.5267 1059 72.2432ZM1042.06 71.1819C1041.92 71.0424 1041.76 70.9318 1041.57 70.8563C1041.39 70.7808 1041.2 70.742 1041 70.742C1040.8 70.742 1040.61 70.7808 1040.43 70.8563C1040.24 70.9318 1040.08 71.0424 1039.94 71.1819L1033.94 77.1819C1033.8 77.3213 1033.69 77.4867 1033.61 77.6688C1033.54 77.8509 1033.5 78.0461 1033.5 78.2432C1033.5 78.4402 1033.54 78.6354 1033.61 78.8175C1033.69 78.9996 1033.8 79.165 1033.94 79.3044C1034.22 79.5859 1034.6 79.744 1035 79.744C1035.2 79.744 1035.39 79.7052 1035.57 79.6297C1035.76 79.5543 1035.92 79.4438 1036.06 79.3044L1039.5 75.8638V87.2432C1039.5 87.641 1039.66 88.0225 1039.94 88.3038C1040.22 88.5851 1040.6 88.7432 1041 88.7432C1041.4 88.7432 1041.78 88.5851 1042.06 88.3038C1042.34 88.0225 1042.5 87.641 1042.5 87.2432V75.8638L1045.94 79.3044C1046.08 79.4438 1046.24 79.5543 1046.43 79.6297C1046.61 79.7052 1046.8 79.744 1047 79.744C1047.2 79.744 1047.39 79.7052 1047.57 79.6297C1047.76 79.5543 1047.92 79.4438 1048.06 79.3044C1048.2 79.165 1048.31 78.9996 1048.39 78.8175C1048.46 78.6354 1048.5 78.4402 1048.5 78.2432C1048.5 78.0461 1048.46 77.8509 1048.39 77.6688C1048.31 77.4867 1048.2 77.3213 1048.06 77.1819L1042.06 71.1819Z" fill="#1C1C1C" fill-opacity="0.4"/>
<path d="M1018.37 109.061H1020.53V115.674C1020.53 116.416 1020.35 117.066 1019.99 117.622C1019.64 118.179 1019.15 118.613 1018.52 118.925C1017.89 119.233 1017.15 119.387 1016.31 119.387C1015.46 119.387 1014.72 119.233 1014.09 118.925C1013.46 118.613 1012.96 118.179 1012.61 117.622C1012.26 117.066 1012.09 116.416 1012.09 115.674V109.061H1014.24V115.49C1014.24 115.877 1014.32 116.222 1014.49 116.524C1014.66 116.825 1014.91 117.062 1015.22 117.235C1015.53 117.407 1015.89 117.493 1016.31 117.493C1016.72 117.493 1017.09 117.407 1017.39 117.235C1017.71 117.062 1017.95 116.825 1018.12 116.524C1018.29 116.222 1018.37 115.877 1018.37 115.49V109.061ZM1022.26 122.107V111.607H1024.35V112.889H1024.44C1024.53 112.684 1024.67 112.475 1024.84 112.263C1025.02 112.048 1025.25 111.869 1025.54 111.726C1025.83 111.58 1026.19 111.507 1026.61 111.507C1027.17 111.507 1027.68 111.653 1028.15 111.945C1028.63 112.233 1029 112.669 1029.28 113.252C1029.56 113.832 1029.71 114.56 1029.71 115.435C1029.71 116.287 1029.57 117.006 1029.29 117.593C1029.02 118.176 1028.65 118.618 1028.18 118.92C1027.71 119.218 1027.19 119.367 1026.61 119.367C1026.2 119.367 1025.85 119.3 1025.56 119.164C1025.27 119.028 1025.04 118.857 1024.86 118.652C1024.68 118.443 1024.54 118.232 1024.44 118.02H1024.38V122.107H1022.26ZM1024.33 115.425C1024.33 115.879 1024.39 116.275 1024.52 116.613C1024.65 116.951 1024.83 117.215 1025.07 117.404C1025.31 117.589 1025.6 117.682 1025.94 117.682C1026.28 117.682 1026.57 117.588 1026.81 117.399C1027.05 117.206 1027.23 116.941 1027.35 116.603C1027.48 116.262 1027.54 115.869 1027.54 115.425C1027.54 114.984 1027.48 114.596 1027.36 114.262C1027.24 113.927 1027.06 113.665 1026.82 113.476C1026.58 113.287 1026.29 113.193 1025.94 113.193C1025.59 113.193 1025.3 113.284 1025.06 113.466C1024.83 113.648 1024.65 113.907 1024.52 114.242C1024.39 114.576 1024.33 114.971 1024.33 115.425ZM1033.93 119.367C1033.35 119.367 1032.83 119.218 1032.36 118.92C1031.89 118.618 1031.52 118.176 1031.24 117.593C1030.97 117.006 1030.83 116.287 1030.83 115.435C1030.83 114.56 1030.98 113.832 1031.26 113.252C1031.54 112.669 1031.91 112.233 1032.38 111.945C1032.85 111.653 1033.37 111.507 1033.93 111.507C1034.35 111.507 1034.71 111.58 1035 111.726C1035.28 111.869 1035.52 112.048 1035.69 112.263C1035.87 112.475 1036.01 112.684 1036.1 112.889H1036.16V109.061H1038.28V119.243H1036.19V118.02H1036.1C1036 118.232 1035.86 118.443 1035.68 118.652C1035.5 118.857 1035.26 119.028 1034.98 119.164C1034.69 119.3 1034.34 119.367 1033.93 119.367ZM1034.6 117.682C1034.94 117.682 1035.23 117.589 1035.47 117.404C1035.71 117.215 1035.89 116.951 1036.01 116.613C1036.14 116.275 1036.21 115.879 1036.21 115.425C1036.21 114.971 1036.15 114.576 1036.02 114.242C1035.89 113.907 1035.71 113.648 1035.47 113.466C1035.23 113.284 1034.94 113.193 1034.6 113.193C1034.25 113.193 1033.96 113.287 1033.72 113.476C1033.48 113.665 1033.3 113.927 1033.18 114.262C1033.06 114.596 1033 114.984 1033 115.425C1033 115.869 1033.06 116.262 1033.18 116.603C1033.31 116.941 1033.49 117.206 1033.72 117.399C1033.96 117.588 1034.25 117.682 1034.6 117.682ZM1042.83 119.367C1042.25 119.367 1041.73 119.218 1041.26 118.92C1040.79 118.618 1040.42 118.176 1040.14 117.593C1039.87 117.006 1039.73 116.287 1039.73 115.435C1039.73 114.56 1039.88 113.832 1040.16 113.252C1040.44 112.669 1040.81 112.233 1041.28 111.945C1041.75 111.653 1042.27 111.507 1042.83 111.507C1043.25 111.507 1043.61 111.58 1043.9 111.726C1044.18 111.869 1044.42 112.048 1044.59 112.263C1044.77 112.475 1044.91 112.684 1045 112.889H1045.06V111.607H1047.18V119.243H1045.09V118.02H1045C1044.9 118.232 1044.76 118.443 1044.58 118.652C1044.4 118.857 1044.16 119.028 1043.88 119.164C1043.59 119.3 1043.24 119.367 1042.83 119.367ZM1043.5 117.682C1043.84 117.682 1044.13 117.589 1044.37 117.404C1044.61 117.215 1044.79 116.951 1044.92 116.613C1045.04 116.275 1045.11 115.879 1045.11 115.425C1045.11 114.971 1045.05 114.576 1044.92 114.242C1044.79 113.907 1044.61 113.648 1044.37 113.466C1044.13 113.284 1043.84 113.193 1043.5 113.193C1043.16 113.193 1042.86 113.287 1042.62 113.476C1042.38 113.665 1042.2 113.927 1042.08 114.262C1041.96 114.596 1041.9 114.984 1041.9 115.425C1041.9 115.869 1041.96 116.262 1042.08 116.603C1042.21 116.941 1042.39 117.206 1042.62 117.399C1042.86 117.588 1043.16 117.682 1043.5 117.682ZM1052.98 111.607V113.198H1048.38V111.607H1052.98ZM1049.43 109.777H1051.54V116.897C1051.54 117.092 1051.57 117.245 1051.63 117.354C1051.69 117.46 1051.78 117.535 1051.88 117.578C1051.99 117.621 1052.12 117.642 1052.26 117.642C1052.36 117.642 1052.46 117.634 1052.56 117.617C1052.66 117.598 1052.73 117.583 1052.79 117.573L1053.12 119.149C1053.01 119.182 1052.86 119.22 1052.67 119.263C1052.48 119.309 1052.25 119.338 1051.97 119.348C1051.46 119.367 1051.01 119.3 1050.63 119.144C1050.25 118.988 1049.95 118.746 1049.74 118.418C1049.53 118.09 1049.42 117.675 1049.43 117.175V109.777ZM1057.76 119.392C1056.97 119.392 1056.3 119.233 1055.73 118.915C1055.17 118.594 1054.73 118.139 1054.43 117.553C1054.12 116.963 1053.97 116.265 1053.97 115.46C1053.97 114.674 1054.12 113.985 1054.43 113.392C1054.73 112.798 1055.16 112.336 1055.71 112.005C1056.27 111.673 1056.92 111.507 1057.67 111.507C1058.18 111.507 1058.65 111.589 1059.08 111.751C1059.52 111.91 1059.9 112.15 1060.22 112.472C1060.55 112.793 1060.81 113.198 1060.99 113.685C1061.17 114.169 1061.26 114.736 1061.26 115.385V115.967H1054.81V114.654H1059.27C1059.27 114.349 1059.2 114.079 1059.07 113.844C1058.94 113.609 1058.75 113.425 1058.52 113.292C1058.29 113.156 1058.02 113.088 1057.71 113.088C1057.39 113.088 1057.1 113.163 1056.85 113.312C1056.61 113.458 1056.42 113.655 1056.28 113.904C1056.14 114.149 1056.07 114.422 1056.06 114.724V115.972C1056.06 116.35 1056.13 116.676 1056.27 116.951C1056.41 117.226 1056.61 117.438 1056.87 117.588C1057.13 117.737 1057.44 117.811 1057.79 117.811C1058.03 117.811 1058.24 117.778 1058.44 117.712C1058.63 117.646 1058.8 117.546 1058.94 117.414C1059.08 117.281 1059.19 117.119 1059.26 116.926L1061.22 117.056C1061.12 117.526 1060.91 117.937 1060.61 118.289C1060.3 118.637 1059.91 118.908 1059.42 119.104C1058.94 119.296 1058.39 119.392 1057.76 119.392ZM1030.11 132.626H1027.93C1027.89 132.344 1027.81 132.094 1027.68 131.875C1027.56 131.653 1027.4 131.464 1027.21 131.309C1027.02 131.153 1026.8 131.033 1026.55 130.951C1026.3 130.868 1026.03 130.826 1025.74 130.826C1025.21 130.826 1024.75 130.957 1024.36 131.219C1023.97 131.478 1023.66 131.855 1023.45 132.353C1023.23 132.846 1023.13 133.446 1023.13 134.152C1023.13 134.878 1023.23 135.488 1023.45 135.982C1023.67 136.476 1023.97 136.849 1024.36 137.1C1024.75 137.352 1025.21 137.478 1025.72 137.478C1026.01 137.478 1026.28 137.44 1026.52 137.364C1026.77 137.288 1026.99 137.177 1027.18 137.031C1027.37 136.882 1027.53 136.701 1027.66 136.489C1027.79 136.277 1027.88 136.035 1027.93 135.763L1030.11 135.773C1030.05 136.24 1029.91 136.691 1029.68 137.125C1029.46 137.556 1029.16 137.942 1028.78 138.284C1028.41 138.622 1027.96 138.89 1027.44 139.089C1026.92 139.285 1026.34 139.382 1025.69 139.382C1024.78 139.382 1023.97 139.177 1023.25 138.766C1022.54 138.355 1021.97 137.76 1021.56 136.981C1021.15 136.202 1020.94 135.259 1020.94 134.152C1020.94 133.042 1021.15 132.097 1021.57 131.318C1021.99 130.54 1022.55 129.946 1023.27 129.539C1023.99 129.128 1024.79 128.922 1025.69 128.922C1026.28 128.922 1026.82 129.005 1027.33 129.171C1027.83 129.336 1028.28 129.578 1028.67 129.897C1029.07 130.211 1029.38 130.598 1029.63 131.055C1029.88 131.512 1030.04 132.036 1030.11 132.626ZM1031.65 139.243V129.061H1035.67C1036.44 129.061 1037.09 129.199 1037.64 129.474C1038.18 129.746 1038.6 130.132 1038.88 130.632C1039.17 131.13 1039.32 131.715 1039.32 132.387C1039.32 133.063 1039.17 133.645 1038.88 134.132C1038.59 134.616 1038.16 134.987 1037.61 135.246C1037.06 135.505 1036.39 135.634 1035.61 135.634H1032.92V133.904H1035.26C1035.67 133.904 1036.02 133.847 1036.29 133.735C1036.56 133.622 1036.76 133.453 1036.89 133.228C1037.03 133.002 1037.1 132.722 1037.1 132.387C1037.1 132.049 1037.03 131.764 1036.89 131.532C1036.76 131.3 1036.56 131.125 1036.28 131.005C1036.01 130.883 1035.67 130.821 1035.25 130.821H1033.8V139.243H1031.65ZM1037.15 134.61L1039.68 139.243H1037.3L1034.83 134.61H1037.15ZM1040.84 129.061H1043.49L1046.3 135.902H1046.42L1049.22 129.061H1051.87V139.243H1049.79V132.616H1049.7L1047.07 139.193H1045.64L1043.01 132.591H1042.93V139.243H1040.84V129.061Z" fill="#1C1C1C" fill-opacity="0.4"/>
</g>
<defs>
<filter id="filter0_d_31981_88817" x="304" y="0.743164" width="199" height="199" filterUnits="userSpaceOnUse" color-interpolation-filters="sRGB">
<feFlood flood-opacity="0" result="BackgroundImageFix"/>
<feColorMatrix in="SourceAlpha" type="matrix" values="0 0 0 0 0 0 0 0 0 0 0 0 0 0 0 0 0 0 127 0" result="hardAlpha"/>
<feOffset dy="4"/>
<feGaussianBlur stdDeviation="2"/>
<feComposite in2="hardAlpha" operator="out"/>
<feColorMatrix type="matrix" values="0 0 0 0 0 0 0 0 0 0 0 0 0 0 0 0 0 0 0.25 0"/>
<feBlend mode="normal" in2="BackgroundImageFix" result="effect1_dropShadow_31981_88817"/>
<feBlend mode="normal" in="SourceGraphic" in2="effect1_dropShadow_31981_88817" result="shape"/>
</filter>
<filter id="filter1_d_31981_88817" x="515" y="0.743164" width="199" height="199" filterUnits="userSpaceOnUse" color-interpolation-filters="sRGB">
<feFlood flood-opacity="0" result="BackgroundImageFix"/>
<feColorMatrix in="SourceAlpha" type="matrix" values="0 0 0 0 0 0 0 0 0 0 0 0 0 0 0 0 0 0 127 0" result="hardAlpha"/>
<feOffset dy="4"/>
<feGaussianBlur stdDeviation="2"/>
<feComposite in2="hardAlpha" operator="out"/>
<feColorMatrix type="matrix" values="0 0 0 0 0 0 0 0 0 0 0 0 0 0 0 0 0 0 0.25 0"/>
<feBlend mode="normal" in2="BackgroundImageFix" result="effect1_dropShadow_31981_88817"/>
<feBlend mode="normal" in="SourceGraphic" in2="effect1_dropShadow_31981_88817" result="shape"/>
</filter>
<filter id="filter2_d_31981_88817" x="726" y="0.743164" width="199" height="199" filterUnits="userSpaceOnUse" color-interpolation-filters="sRGB">
<feFlood flood-opacity="0" result="BackgroundImageFix"/>
<feColorMatrix in="SourceAlpha" type="matrix" values="0 0 0 0 0 0 0 0 0 0 0 0 0 0 0 0 0 0 127 0" result="hardAlpha"/>
<feOffset dy="4"/>
<feGaussianBlur stdDeviation="2"/>
<feComposite in2="hardAlpha" operator="out"/>
<feColorMatrix type="matrix" values="0 0 0 0 0 0 0 0 0 0 0 0 0 0 0 0 0 0 0.25 0"/>
<feBlend mode="normal" in2="BackgroundImageFix" result="effect1_dropShadow_31981_88817"/>
<feBlend mode="normal" in="SourceGraphic" in2="effect1_dropShadow_31981_88817" result="shape"/>
</filter>
<filter id="filter3_d_31981_88817" x="937" y="0.743164" width="199" height="199" filterUnits="userSpaceOnUse" color-interpolation-filters="sRGB">
<feFlood flood-opacity="0" result="BackgroundImageFix"/>
<feColorMatrix in="SourceAlpha" type="matrix" values="0 0 0 0 0 0 0 0 0 0 0 0 0 0 0 0 0 0 127 0" result="hardAlpha"/>
<feOffset dy="4"/>
<feGaussianBlur stdDeviation="2"/>
<feComposite in2="hardAlpha" operator="out"/>
<feColorMatrix type="matrix" values="0 0 0 0 0 0 0 0 0 0 0 0 0 0 0 0 0 0 0.25 0"/>
<feBlend mode="normal" in2="BackgroundImageFix" result="effect1_dropShadow_31981_88817"/>
<feBlend mode="normal" in="SourceGraphic" in2="effect1_dropShadow_31981_88817" result="shape"/>
</filter>
</defs>
</svg>
