<svg width="161" height="170" viewBox="0 0 161 170" fill="none" xmlns="http://www.w3.org/2000/svg">
<path d="M155.962 169.144H145.838C144.974 169.144 144.11 168.897 143.369 168.403L119.666 151.737C118.925 151.243 118.061 150.996 117.196 150.996H20.0359C9.17168 150.873 0.40625 142.107 0.40625 131.366V20.6257C0.40625 9.76152 9.17168 0.996095 20.0359 0.996095H103.863C114.727 0.996095 123.493 9.76152 123.493 20.6257V30.6257C123.493 32.9714 125.468 34.9467 127.814 34.9467H140.777C151.641 34.9467 160.406 43.7121 160.406 54.5763V164.823C160.283 167.169 158.307 169.144 155.962 169.144ZM20.2828 135.317H122.258C123.122 135.317 123.986 135.564 124.727 136.058L140.53 147.169C142.258 148.403 144.727 147.169 144.727 144.947V54.8232C144.727 52.4776 142.752 50.5023 140.406 50.5023H127.69C125.345 50.5023 123.369 52.4776 123.369 54.8232V112.724C123.369 115.07 121.394 117.045 119.048 117.045H41.5174C39.1717 117.045 37.1964 115.07 37.1964 112.724V39.2677C37.1964 36.922 39.1717 34.9467 41.5174 34.9467H103.616C105.962 34.9467 107.937 32.9714 107.937 30.6257V20.8726C107.937 18.527 105.962 16.5516 103.616 16.5516H20.2828C17.9371 16.5516 15.9618 18.527 15.9618 20.8726V130.996C15.9618 133.465 17.8137 135.317 20.2828 135.317ZM54.8507 101.366H105.715C106.949 101.366 107.814 100.379 107.814 99.2677V52.601C107.814 51.3665 106.826 50.5023 105.715 50.5023H54.8507C53.6161 50.5023 52.7519 51.4899 52.7519 52.601V99.2677C52.7519 100.502 53.7396 101.366 54.8507 101.366Z" fill="#161616"/>
</svg>
