<svg width="32" height="32" viewBox="0 0 32 32" fill="none" xmlns="http://www.w3.org/2000/svg">
<path fill-rule="evenodd" clip-rule="evenodd" d="M13.5 6.76304L12.2389 10.171C11.8844 11.129 11.1291 11.8844 10.1711 12.2389L6.7631 13.5L10.1711 14.761C11.1291 15.1155 11.8844 15.8709 12.2389 16.8289L13.5 20.2369L14.7611 16.8289C15.1156 15.8709 15.8709 15.1155 16.8289 14.761L20.2369 13.5L16.8289 12.2389C15.8709 11.8844 15.1156 11.129 14.7611 10.171L13.5 6.76304ZM14.9068 4.80171C14.4236 3.49578 12.5765 3.49578 12.0932 4.80171L10.3632 9.47696C10.2113 9.88754 9.8876 10.2113 9.47702 10.3632L4.80177 12.0932C3.49584 12.5764 3.49584 14.4235 4.80177 14.9067L9.47702 16.6367C9.8876 16.7887 10.2113 17.1124 10.3632 17.523L12.0932 22.1982C12.5765 23.5041 14.4236 23.5041 14.9068 22.1982L16.6368 17.523C16.7887 17.1124 17.1124 16.7887 17.523 16.6367L22.1983 14.9067C23.5042 14.4235 23.5042 12.5764 22.1983 12.0932L17.523 10.3632C17.1124 10.2113 16.7887 9.88754 16.6368 9.47696L14.9068 4.80171Z" fill="#1C1C1C"/>
<path fill-rule="evenodd" clip-rule="evenodd" d="M23.4998 20.3223L23.0405 21.5636C22.7873 22.2479 22.2477 22.7875 21.5635 23.0407L20.3221 23.5L21.5635 23.9593C22.2477 24.2125 22.7873 24.7521 23.0405 25.4364L23.4998 26.6777L23.9591 25.4364C24.2124 24.7521 24.7519 24.2125 25.4362 23.9593L26.6775 23.5L25.4362 23.0407C24.7519 22.7875 24.2124 22.2479 23.9591 21.5636L23.4998 20.3223ZM24.4377 18.5345C24.1155 17.6639 22.8841 17.6639 22.562 18.5345L21.6337 21.0431C21.5324 21.3168 21.3166 21.5326 21.0429 21.6339L18.5343 22.5622C17.6637 22.8843 17.6637 24.1157 18.5343 24.4379L21.0429 25.3661C21.3166 25.4674 21.5324 25.6832 21.6337 25.9569L22.562 28.4655C22.8841 29.3361 24.1155 29.3361 24.4377 28.4655L25.3659 25.9569C25.4672 25.6832 25.683 25.4674 25.9567 25.3661L28.4653 24.4379C29.3359 24.1157 29.3359 22.8843 28.4653 22.5622L25.9567 21.6339C25.683 21.5326 25.4672 21.3168 25.3659 21.0431L24.4377 18.5345Z" fill="#1C1C1C"/>
</svg>
