<svg width="24" height="24" viewBox="0 0 24 24" fill="none" xmlns="http://www.w3.org/2000/svg">
<path d="M0.747384 3.74407C0 5.21089 0 7.13107 0 10.9714V13.0286C0 16.8689 0 18.7891 0.747384 20.2559C1.4048 21.5462 2.45381 22.5952 3.74407 23.2526C5.21089 24 7.13107 24 10.9714 24H13.0286C16.8689 24 18.7891 24 20.2559 23.2526C21.5462 22.5952 22.5952 21.5462 23.2526 20.2559C24 18.7891 24 16.8689 24 13.0286V10.9714C24 7.13107 24 5.21089 23.2526 3.74407C22.5952 2.45381 21.5462 1.4048 20.2559 0.747384C18.7891 0 16.8689 0 13.0286 0H10.9714C7.13107 0 5.21089 0 3.74407 0.747384C2.45381 1.4048 1.4048 2.45381 0.747384 3.74407Z" fill="url(#paint0_linear_31800_60319)"/>
<path d="M0.227334 5.38245C0 6.67441 0 8.38866 0 10.9714V13.0285C0 16.8689 0 18.7891 0.747384 20.2559C1.4048 21.5462 2.45381 22.5952 3.74407 23.2526C5.21089 24 7.13107 24 10.9714 24H13.0286C16.8689 24 18.7891 24 20.2559 23.2526C21.5462 22.5952 22.5952 21.5462 23.2526 20.2559C24 18.7891 24 16.8689 24 13.0285V10.9714C24 7.13103 24 5.21085 23.2526 3.74403C22.6181 2.49867 21.6187 1.47805 20.3897 0.817383L0.227334 5.38245Z" fill="url(#paint1_linear_31800_60319)"/>
<path d="M23.7517 18.7319C23.6415 19.3111 23.4824 19.8049 23.2526 20.2558C22.5952 21.5461 21.5462 22.5951 20.256 23.2525C18.833 23.9775 16.9835 23.9992 13.3682 23.9999H12.0502V21.2886L23.7517 18.7319Z" fill="url(#paint2_linear_31800_60319)"/>
<path d="M13.0286 0H10.9714C10.2243 0 9.54984 0 8.93726 0.00550344V3.4033L20.3875 0.816217C20.3439 0.792818 20.3001 0.769872 20.256 0.747384C19.4416 0.33247 18.4876 0.147898 17.1429 0.0657918C16.0653 0 14.737 0 13.0286 0Z" fill="url(#paint3_linear_31800_60319)"/>
<path d="M24 13.1772C23.9999 15.7534 23.9953 17.4515 23.7517 18.732L19.682 19.6212V13.5564L24 12.5522V13.1772Z" fill="url(#paint4_linear_31800_60319)"/>
<path fill-rule="evenodd" clip-rule="evenodd" d="M11.0922 9.75262C11.0922 9.20176 11.5426 8.98988 12.2885 8.98988C13.3582 8.98988 14.7093 9.31475 15.779 9.89387V6.57454C14.6108 6.10843 13.4567 5.9248 12.2885 5.9248C9.43142 5.9248 7.53137 7.42203 7.53137 9.92212C7.53137 13.8206 12.8796 13.1991 12.8796 14.8799C12.8796 15.5297 12.3167 15.7415 11.5285 15.7415C10.3603 15.7415 8.86844 15.2613 7.68619 14.6115V17.9732C8.99511 18.5382 10.3181 18.7784 11.5285 18.7784C14.456 18.7784 16.4686 17.3235 16.4686 14.7952C16.4545 10.586 11.0922 11.3346 11.0922 9.75262Z" fill="white"/>
<defs>
<linearGradient id="paint0_linear_31800_60319" x1="0" y1="0" x2="7.88285" y2="5.57322" gradientUnits="userSpaceOnUse">
<stop stop-color="#392993"/>
<stop offset="1" stop-color="#4B47B9"/>
</linearGradient>
<linearGradient id="paint1_linear_31800_60319" x1="0.903767" y1="5.63522" x2="18.3057" y2="19.9894" gradientUnits="userSpaceOnUse">
<stop stop-color="#594BB9"/>
<stop offset="1" stop-color="#60A8F2"/>
</linearGradient>
<linearGradient id="paint2_linear_31800_60319" x1="12.0502" y1="21.389" x2="24" y2="23.9999" gradientUnits="userSpaceOnUse">
<stop stop-color="#61A2EF"/>
<stop offset="1" stop-color="#58E6FD"/>
</linearGradient>
<linearGradient id="paint3_linear_31800_60319" x1="8.93726" y1="1.70711" x2="24" y2="-7.04662e-08" gradientUnits="userSpaceOnUse">
<stop stop-color="#534EBE"/>
<stop offset="1" stop-color="#6875E2"/>
</linearGradient>
<linearGradient id="paint4_linear_31800_60319" x1="19.682" y1="13.6066" x2="24" y2="18.7782" gradientUnits="userSpaceOnUse">
<stop stop-color="#71A5F3"/>
<stop offset="1" stop-color="#6CC3FA"/>
</linearGradient>
</defs>
</svg>
