<svg width="403" height="143" viewBox="0 0 403 143" fill="none" xmlns="http://www.w3.org/2000/svg">
<g filter="url(#filter0_dd_2890_2841)">
<path d="M3 10C3 5.58172 6.58172 2 11 2H392C396.418 2 400 5.58172 400 10V131C400 135.418 396.418 139 392 139H11C6.58172 139 3 135.418 3 131V10Z" fill="url(#paint0_linear_2890_2841)" shape-rendering="crispEdges"/>
<path d="M3.25 10C3.25 5.71979 6.71979 2.25 11 2.25H392C396.28 2.25 399.75 5.71979 399.75 10V131C399.75 135.28 396.28 138.75 392 138.75H11C6.7198 138.75 3.25 135.28 3.25 131V10Z" stroke="url(#paint1_linear_2890_2841)" stroke-width="0.5" shape-rendering="crispEdges"/>
<rect x="83.4012" y="37.911" width="73.6035" height="65.178" rx="6.16502" fill="url(#paint2_linear_2890_2841)"/>
<rect x="83.4012" y="37.911" width="73.6035" height="65.178" rx="6.16502" stroke="url(#paint3_linear_2890_2841)" stroke-width="0.822003"/>
<path d="M101.611 86.6489H108.461V70.0149L98.6758 62.6762V83.7135C98.6758 85.3378 99.9918 86.6489 101.611 86.6489Z" fill="#4285F4"/>
<path d="M131.945 86.6489H138.795C140.419 86.6489 141.73 85.3329 141.73 83.7135V62.6762L131.945 70.0149" fill="#34A853"/>
<path d="M131.945 57.2949V70.0151L141.73 62.6765V58.7626C141.73 55.1324 137.586 53.063 134.685 55.24" fill="#FBBC04"/>
<path d="M108.459 70.0147V57.2946L120.201 66.1009L131.943 57.2946V70.0147L120.201 78.8211" fill="#EA4335"/>
<path d="M98.6758 58.7626V62.6765L108.461 70.0151V57.2949L105.721 55.24C102.815 53.063 98.6758 55.1324 98.6758 58.7626Z" fill="#C5221F"/>
<g filter="url(#filter1_d_2890_2841)">
<path fill-rule="evenodd" clip-rule="evenodd" d="M196.295 63.89C196.844 63.3416 197.733 63.3416 198.281 63.89L203.898 69.507C204.447 70.0554 204.447 70.9445 203.898 71.4929L198.281 77.11C197.733 77.6584 196.844 77.6584 196.295 77.11C195.747 76.5616 195.747 75.6724 196.295 75.124L199.515 71.9042L177.629 71.9042C176.853 71.9042 176.225 71.2755 176.225 70.5C176.225 69.7244 176.853 69.0957 177.629 69.0957L199.515 69.0957L196.295 65.8759C195.747 65.3275 195.747 64.4384 196.295 63.89Z" fill="url(#paint4_linear_2890_2841)"/>
</g>
<rect x="223.529" y="37.911" width="96.0695" height="65.178" rx="6.16502" fill="url(#paint5_linear_2890_2841)"/>
<rect x="223.529" y="37.911" width="96.0695" height="65.178" rx="6.16502" stroke="url(#paint6_linear_2890_2841)" stroke-width="0.822003"/>
<path fill-rule="evenodd" clip-rule="evenodd" d="M254.01 59.2666C247.806 59.2666 242.777 64.296 242.777 70.5C242.777 76.704 247.806 81.7333 254.01 81.7333C260.214 81.7333 265.244 76.704 265.244 70.5C265.244 64.296 260.214 59.2666 254.01 59.2666ZM239.969 70.5C239.969 62.745 246.255 56.4583 254.01 56.4583C261.765 56.4583 268.052 62.745 268.052 70.5C268.052 78.255 261.765 84.5416 254.01 84.5416C246.255 84.5416 239.969 78.255 239.969 70.5ZM254.01 62.075C254.786 62.075 255.415 62.7036 255.415 63.4791V63.6088C256.735 63.8571 257.93 64.457 258.72 65.3672C259.228 65.953 259.165 66.8398 258.58 67.348C257.994 67.8563 257.107 67.7935 256.599 67.2077C256.371 66.9448 255.964 66.6774 255.415 66.4992L255.415 69.225C256.287 69.3889 257.095 69.7053 257.768 70.1542C258.781 70.8297 259.627 71.9172 259.627 73.3083C259.627 74.6994 258.781 75.7869 257.768 76.4624C257.095 76.9113 256.287 77.2277 255.415 77.3916L255.415 77.5208C255.415 78.2963 254.786 78.925 254.01 78.925C253.235 78.925 252.606 78.2963 252.606 77.5208L252.606 77.3911C251.286 77.1429 250.091 76.543 249.301 75.6327C248.793 75.047 248.856 74.1602 249.441 73.6519C250.027 73.1437 250.914 73.2065 251.422 73.7922C251.65 74.0552 252.057 74.3225 252.606 74.5008L252.606 71.775C251.733 71.6111 250.926 71.2946 250.253 70.8458C249.239 70.1702 248.394 69.0827 248.394 67.6916C248.394 66.3006 249.239 65.2131 250.253 64.5375C250.926 64.0887 251.733 63.7722 252.606 63.6083V63.4791C252.606 62.7036 253.235 62.075 254.01 62.075ZM252.606 66.4995C252.296 66.5998 252.028 66.7293 251.811 66.8742C251.299 67.215 251.202 67.5317 251.202 67.6916C251.202 67.8516 251.299 68.1683 251.811 68.5091C252.028 68.654 252.296 68.7835 252.606 68.8838L252.606 66.4995ZM255.415 72.1162L255.415 74.5004C255.724 74.4002 255.993 74.2707 256.21 74.1258C256.722 73.7849 256.819 73.4683 256.819 73.3083C256.819 73.1484 256.722 72.8317 256.21 72.4909C255.993 72.346 255.724 72.2164 255.415 72.1162Z" fill="url(#paint7_linear_2890_2841)"/>
<path fill-rule="evenodd" clip-rule="evenodd" d="M289.116 59.266C282.912 59.266 277.882 64.2956 277.882 70.5C277.882 72.8587 278.609 75.0476 279.851 76.855C282.648 75.4829 285.794 74.7128 289.116 74.7128C292.438 74.7128 295.584 75.4829 298.381 76.855C299.623 75.0476 300.35 72.8587 300.35 70.5C300.35 64.2956 295.321 59.266 289.116 59.266ZM299.865 79.5373C301.92 77.0949 303.159 73.9421 303.159 70.5C303.159 62.7445 296.872 56.4575 289.116 56.4575C281.361 56.4575 275.074 62.7445 275.074 70.5C275.074 73.9421 276.312 77.095 278.368 79.5373C278.379 79.5509 278.39 79.5644 278.402 79.5775C280.978 82.6148 284.822 84.5426 289.116 84.5426C293.411 84.5426 297.255 82.6149 299.831 79.5775C299.842 79.5644 299.854 79.5509 299.865 79.5373ZM296.416 79.0391C294.182 78.063 291.714 77.5213 289.116 77.5213C286.519 77.5213 284.051 78.063 281.816 79.0391C283.78 80.7193 286.329 81.7341 289.116 81.7341C291.903 81.7341 294.453 80.7193 296.416 79.0391ZM289.116 64.883C287.565 64.883 286.308 66.1404 286.308 67.6915C286.308 69.2426 287.565 70.5 289.116 70.5C290.667 70.5 291.925 69.2426 291.925 67.6915C291.925 66.1404 290.667 64.883 289.116 64.883ZM283.499 67.6915C283.499 64.5893 286.014 62.0745 289.116 62.0745C292.218 62.0745 294.733 64.5893 294.733 67.6915C294.733 70.7937 292.218 73.3085 289.116 73.3085C286.014 73.3085 283.499 70.7937 283.499 67.6915Z" fill="url(#paint8_linear_2890_2841)"/>
</g>
<defs>
<filter id="filter0_dd_2890_2841" x="0" y="0" width="403" height="143" filterUnits="userSpaceOnUse" color-interpolation-filters="sRGB">
<feFlood flood-opacity="0" result="BackgroundImageFix"/>
<feColorMatrix in="SourceAlpha" type="matrix" values="0 0 0 0 0 0 0 0 0 0 0 0 0 0 0 0 0 0 127 0" result="hardAlpha"/>
<feOffset dy="1"/>
<feGaussianBlur stdDeviation="1.5"/>
<feComposite in2="hardAlpha" operator="out"/>
<feColorMatrix type="matrix" values="0 0 0 0 0 0 0 0 0 0 0 0 0 0 0 0 0 0 0.1 0"/>
<feBlend mode="normal" in2="BackgroundImageFix" result="effect1_dropShadow_2890_2841"/>
<feColorMatrix in="SourceAlpha" type="matrix" values="0 0 0 0 0 0 0 0 0 0 0 0 0 0 0 0 0 0 127 0" result="hardAlpha"/>
<feMorphology radius="1" operator="erode" in="SourceAlpha" result="effect2_dropShadow_2890_2841"/>
<feOffset dy="1"/>
<feGaussianBlur stdDeviation="1"/>
<feComposite in2="hardAlpha" operator="out"/>
<feColorMatrix type="matrix" values="0 0 0 0 0 0 0 0 0 0 0 0 0 0 0 0 0 0 0.1 0"/>
<feBlend mode="normal" in2="effect1_dropShadow_2890_2841" result="effect2_dropShadow_2890_2841"/>
<feBlend mode="normal" in="SourceGraphic" in2="effect2_dropShadow_2890_2841" result="shape"/>
</filter>
<filter id="filter1_d_2890_2841" x="167.799" y="53.6489" width="44.9362" height="44.9362" filterUnits="userSpaceOnUse" color-interpolation-filters="sRGB">
<feFlood flood-opacity="0" result="BackgroundImageFix"/>
<feColorMatrix in="SourceAlpha" type="matrix" values="0 0 0 0 0 0 0 0 0 0 0 0 0 0 0 0 0 0 127 0" result="hardAlpha"/>
<feOffset dy="5.61702"/>
<feGaussianBlur stdDeviation="2.80851"/>
<feComposite in2="hardAlpha" operator="out"/>
<feColorMatrix type="matrix" values="0 0 0 0 0 0 0 0 0 0 0 0 0 0 0 0 0 0 0.25 0"/>
<feBlend mode="normal" in2="BackgroundImageFix" result="effect1_dropShadow_2890_2841"/>
<feBlend mode="normal" in="SourceGraphic" in2="effect1_dropShadow_2890_2841" result="shape"/>
</filter>
<linearGradient id="paint0_linear_2890_2841" x1="138.5" y1="47.5" x2="107.688" y2="325.026" gradientUnits="userSpaceOnUse">
<stop stop-color="white"/>
<stop offset="0.9999" stop-color="#80AEF9" stop-opacity="0.72"/>
</linearGradient>
<linearGradient id="paint1_linear_2890_2841" x1="201.5" y1="2" x2="202" y2="153" gradientUnits="userSpaceOnUse">
<stop offset="1" stop-color="#0085FF"/>
</linearGradient>
<linearGradient id="paint2_linear_2890_2841" x1="112.2" y1="137.02" x2="127.156" y2="71.2137" gradientUnits="userSpaceOnUse">
<stop stop-color="white"/>
<stop offset="0.0001" stop-color="#D0D0D0" stop-opacity="0.65"/>
<stop offset="0.9999" stop-color="white"/>
<stop offset="1" stop-color="white"/>
</linearGradient>
<linearGradient id="paint3_linear_2890_2841" x1="120.203" y1="37.5" x2="120.203" y2="103.5" gradientUnits="userSpaceOnUse">
<stop offset="0.451" stop-color="#0060FE"/>
<stop offset="1" stop-color="#0085FF"/>
</linearGradient>
<linearGradient id="paint4_linear_2890_2841" x1="190.267" y1="63.4787" x2="190.267" y2="77.5213" gradientUnits="userSpaceOnUse">
<stop offset="0.451" stop-color="#0060FE"/>
<stop offset="1" stop-color="#0085FF"/>
</linearGradient>
<linearGradient id="paint5_linear_2890_2841" x1="261.145" y1="137.02" x2="272.869" y2="69.8615" gradientUnits="userSpaceOnUse">
<stop stop-color="white"/>
<stop offset="0.0001" stop-color="#D0D0D0" stop-opacity="0.65"/>
<stop offset="0.9999" stop-color="white"/>
<stop offset="1" stop-color="white"/>
</linearGradient>
<linearGradient id="paint6_linear_2890_2841" x1="271.564" y1="37.5" x2="271.564" y2="103.5" gradientUnits="userSpaceOnUse">
<stop offset="0.451" stop-color="#0060FE"/>
<stop offset="1" stop-color="#0085FF"/>
</linearGradient>
<linearGradient id="paint7_linear_2890_2841" x1="254.01" y1="56.4583" x2="254.01" y2="84.5416" gradientUnits="userSpaceOnUse">
<stop offset="0.451" stop-color="#0060FE"/>
<stop offset="1" stop-color="#0085FF"/>
</linearGradient>
<linearGradient id="paint8_linear_2890_2841" x1="289.116" y1="56.4575" x2="289.116" y2="84.5426" gradientUnits="userSpaceOnUse">
<stop offset="0.451" stop-color="#0060FE"/>
<stop offset="1" stop-color="#0085FF"/>
</linearGradient>
</defs>
</svg>
