<svg width="403" height="143" viewBox="0 0 403 143" fill="none" xmlns="http://www.w3.org/2000/svg">
<g filter="url(#filter0_dd_2916_2401)">
<path d="M3 10C3 5.58172 6.58172 2 11 2H392C396.418 2 400 5.58172 400 10V131C400 135.418 396.418 139 392 139H11C6.58172 139 3 135.418 3 131V10Z" fill="url(#paint0_linear_2916_2401)" shape-rendering="crispEdges"/>
<path d="M3.25 10C3.25 5.71979 6.71979 2.25 11 2.25H392C396.28 2.25 399.75 5.71979 399.75 10V131C399.75 135.28 396.28 138.75 392 138.75H11C6.7198 138.75 3.25 135.28 3.25 131V10Z" stroke="url(#paint1_linear_2916_2401)" stroke-width="0.5" shape-rendering="crispEdges"/>
<rect x="83.4012" y="37.911" width="73.6035" height="65.178" rx="6.16502" fill="url(#paint2_linear_2916_2401)"/>
<rect x="83.4012" y="37.911" width="73.6035" height="65.178" rx="6.16502" stroke="url(#paint3_linear_2916_2401)" stroke-width="0.822003"/>
<circle cx="120.203" cy="70.5" r="18.9574" fill="url(#paint4_linear_2916_2401)"/>
<path d="M120.308 65.6206L120.363 66.5226L119.438 66.4122C116.073 65.9888 113.133 64.553 110.636 62.1417L109.416 60.9452L109.101 61.8287C108.436 63.7983 108.861 65.8783 110.248 67.2773C110.988 68.0504 110.821 68.1609 109.545 67.7007C109.101 67.5534 108.713 67.443 108.676 67.4982C108.547 67.627 108.99 69.3021 109.342 69.9648C109.823 70.8851 110.803 71.7871 111.875 72.3209L112.781 72.7443L111.709 72.7627C110.673 72.7627 110.636 72.7811 110.747 73.1676C111.117 74.3641 112.578 75.6342 114.205 76.1864L115.352 76.573L114.353 77.162C112.874 78.0088 111.135 78.4874 109.397 78.5242C108.565 78.5426 107.881 78.6162 107.881 78.6714C107.881 78.8555 110.137 79.8863 111.45 80.2913C115.389 81.4878 120.067 80.9724 123.581 78.9291C126.077 77.475 128.573 74.585 129.738 71.7871C130.367 70.2961 130.996 67.5718 130.996 66.2649C130.996 65.4182 131.051 65.3077 132.087 64.2953C132.697 63.7063 133.27 63.062 133.381 62.8779C133.566 62.5282 133.548 62.5282 132.605 62.8411C131.033 63.3934 130.811 63.3197 131.588 62.4914C132.161 61.9024 132.845 60.8347 132.845 60.5218C132.845 60.4666 132.568 60.5586 132.253 60.7243C131.921 60.9084 131.181 61.1845 130.626 61.3501L129.627 61.6631L128.721 61.0556C128.222 60.7243 127.519 60.3561 127.15 60.2457C126.206 59.988 124.764 60.0248 123.913 60.3193C121.602 61.1477 120.141 63.2829 120.308 65.6206Z" fill="white"/>
<g filter="url(#filter1_d_2916_2401)">
<path fill-rule="evenodd" clip-rule="evenodd" d="M196.295 63.89C196.844 63.3416 197.733 63.3416 198.281 63.89L203.898 69.507C204.447 70.0554 204.447 70.9445 203.898 71.4929L198.281 77.11C197.733 77.6584 196.844 77.6584 196.295 77.11C195.747 76.5616 195.747 75.6724 196.295 75.124L199.515 71.9042L177.629 71.9042C176.853 71.9042 176.225 71.2755 176.225 70.5C176.225 69.7244 176.853 69.0957 177.629 69.0957L199.515 69.0957L196.295 65.8759C195.747 65.3275 195.747 64.4384 196.295 63.89Z" fill="url(#paint5_linear_2916_2401)"/>
</g>
<rect x="223.529" y="37.911" width="96.0695" height="65.178" rx="6.16502" fill="url(#paint6_linear_2916_2401)"/>
<rect x="223.529" y="37.911" width="96.0695" height="65.178" rx="6.16502" stroke="url(#paint7_linear_2916_2401)" stroke-width="0.822003"/>
<path fill-rule="evenodd" clip-rule="evenodd" d="M254.01 59.2666C247.806 59.2666 242.777 64.296 242.777 70.5C242.777 76.704 247.806 81.7333 254.01 81.7333C260.214 81.7333 265.244 76.704 265.244 70.5C265.244 64.296 260.214 59.2666 254.01 59.2666ZM239.969 70.5C239.969 62.745 246.255 56.4583 254.01 56.4583C261.765 56.4583 268.052 62.745 268.052 70.5C268.052 78.255 261.765 84.5416 254.01 84.5416C246.255 84.5416 239.969 78.255 239.969 70.5ZM254.01 62.075C254.786 62.075 255.415 62.7036 255.415 63.4791V63.6088C256.735 63.8571 257.93 64.457 258.72 65.3672C259.228 65.953 259.165 66.8398 258.58 67.348C257.994 67.8563 257.107 67.7935 256.599 67.2077C256.371 66.9448 255.964 66.6774 255.415 66.4992L255.415 69.225C256.287 69.3889 257.095 69.7053 257.768 70.1542C258.781 70.8297 259.627 71.9172 259.627 73.3083C259.627 74.6994 258.781 75.7869 257.768 76.4624C257.095 76.9113 256.287 77.2277 255.415 77.3916L255.415 77.5208C255.415 78.2963 254.786 78.925 254.01 78.925C253.235 78.925 252.606 78.2963 252.606 77.5208L252.606 77.3911C251.286 77.1429 250.091 76.543 249.301 75.6327C248.793 75.047 248.856 74.1602 249.441 73.6519C250.027 73.1437 250.914 73.2065 251.422 73.7922C251.65 74.0552 252.057 74.3225 252.606 74.5008L252.606 71.775C251.733 71.6111 250.926 71.2946 250.253 70.8458C249.239 70.1702 248.394 69.0827 248.394 67.6916C248.394 66.3006 249.239 65.2131 250.253 64.5375C250.926 64.0887 251.733 63.7722 252.606 63.6083V63.4791C252.606 62.7036 253.235 62.075 254.01 62.075ZM252.606 66.4995C252.296 66.5998 252.028 66.7293 251.811 66.8742C251.299 67.215 251.202 67.5317 251.202 67.6916C251.202 67.8516 251.299 68.1683 251.811 68.5091C252.028 68.654 252.296 68.7835 252.606 68.8838L252.606 66.4995ZM255.415 72.1162L255.415 74.5004C255.724 74.4002 255.993 74.2707 256.21 74.1258C256.722 73.7849 256.819 73.4683 256.819 73.3083C256.819 73.1484 256.722 72.8317 256.21 72.4909C255.993 72.346 255.724 72.2164 255.415 72.1162Z" fill="url(#paint8_linear_2916_2401)"/>
<path fill-rule="evenodd" clip-rule="evenodd" d="M289.116 59.266C282.912 59.266 277.882 64.2956 277.882 70.5C277.882 72.8587 278.609 75.0476 279.851 76.855C282.648 75.4829 285.794 74.7128 289.116 74.7128C292.438 74.7128 295.584 75.4829 298.381 76.855C299.623 75.0476 300.35 72.8587 300.35 70.5C300.35 64.2956 295.321 59.266 289.116 59.266ZM299.865 79.5373C301.92 77.0949 303.159 73.9421 303.159 70.5C303.159 62.7445 296.872 56.4575 289.116 56.4575C281.361 56.4575 275.074 62.7445 275.074 70.5C275.074 73.9421 276.312 77.095 278.368 79.5373C278.379 79.5509 278.39 79.5644 278.402 79.5775C280.978 82.6148 284.822 84.5426 289.116 84.5426C293.411 84.5426 297.255 82.6149 299.831 79.5775C299.842 79.5644 299.854 79.5509 299.865 79.5373ZM296.416 79.0391C294.182 78.063 291.714 77.5213 289.116 77.5213C286.519 77.5213 284.051 78.063 281.816 79.0391C283.78 80.7193 286.329 81.7341 289.116 81.7341C291.903 81.7341 294.453 80.7193 296.416 79.0391ZM289.116 64.883C287.565 64.883 286.308 66.1404 286.308 67.6915C286.308 69.2426 287.565 70.5 289.116 70.5C290.667 70.5 291.925 69.2426 291.925 67.6915C291.925 66.1404 290.667 64.883 289.116 64.883ZM283.499 67.6915C283.499 64.5893 286.014 62.0745 289.116 62.0745C292.218 62.0745 294.733 64.5893 294.733 67.6915C294.733 70.7937 292.218 73.3085 289.116 73.3085C286.014 73.3085 283.499 70.7937 283.499 67.6915Z" fill="url(#paint9_linear_2916_2401)"/>
</g>
<defs>
<filter id="filter0_dd_2916_2401" x="0" y="0" width="403" height="143" filterUnits="userSpaceOnUse" color-interpolation-filters="sRGB">
<feFlood flood-opacity="0" result="BackgroundImageFix"/>
<feColorMatrix in="SourceAlpha" type="matrix" values="0 0 0 0 0 0 0 0 0 0 0 0 0 0 0 0 0 0 127 0" result="hardAlpha"/>
<feOffset dy="1"/>
<feGaussianBlur stdDeviation="1.5"/>
<feComposite in2="hardAlpha" operator="out"/>
<feColorMatrix type="matrix" values="0 0 0 0 0 0 0 0 0 0 0 0 0 0 0 0 0 0 0.1 0"/>
<feBlend mode="normal" in2="BackgroundImageFix" result="effect1_dropShadow_2916_2401"/>
<feColorMatrix in="SourceAlpha" type="matrix" values="0 0 0 0 0 0 0 0 0 0 0 0 0 0 0 0 0 0 127 0" result="hardAlpha"/>
<feMorphology radius="1" operator="erode" in="SourceAlpha" result="effect2_dropShadow_2916_2401"/>
<feOffset dy="1"/>
<feGaussianBlur stdDeviation="1"/>
<feComposite in2="hardAlpha" operator="out"/>
<feColorMatrix type="matrix" values="0 0 0 0 0 0 0 0 0 0 0 0 0 0 0 0 0 0 0.1 0"/>
<feBlend mode="normal" in2="effect1_dropShadow_2916_2401" result="effect2_dropShadow_2916_2401"/>
<feBlend mode="normal" in="SourceGraphic" in2="effect2_dropShadow_2916_2401" result="shape"/>
</filter>
<filter id="filter1_d_2916_2401" x="167.799" y="53.6489" width="44.9362" height="44.9362" filterUnits="userSpaceOnUse" color-interpolation-filters="sRGB">
<feFlood flood-opacity="0" result="BackgroundImageFix"/>
<feColorMatrix in="SourceAlpha" type="matrix" values="0 0 0 0 0 0 0 0 0 0 0 0 0 0 0 0 0 0 127 0" result="hardAlpha"/>
<feOffset dy="5.61702"/>
<feGaussianBlur stdDeviation="2.80851"/>
<feComposite in2="hardAlpha" operator="out"/>
<feColorMatrix type="matrix" values="0 0 0 0 0 0 0 0 0 0 0 0 0 0 0 0 0 0 0.25 0"/>
<feBlend mode="normal" in2="BackgroundImageFix" result="effect1_dropShadow_2916_2401"/>
<feBlend mode="normal" in="SourceGraphic" in2="effect1_dropShadow_2916_2401" result="shape"/>
</filter>
<linearGradient id="paint0_linear_2916_2401" x1="138.5" y1="47.5" x2="107.688" y2="325.026" gradientUnits="userSpaceOnUse">
<stop stop-color="white"/>
<stop offset="0.9999" stop-color="#80AEF9" stop-opacity="0.72"/>
</linearGradient>
<linearGradient id="paint1_linear_2916_2401" x1="201.5" y1="2" x2="202" y2="153" gradientUnits="userSpaceOnUse">
<stop offset="1" stop-color="#0085FF"/>
</linearGradient>
<linearGradient id="paint2_linear_2916_2401" x1="112.2" y1="137.02" x2="127.156" y2="71.2137" gradientUnits="userSpaceOnUse">
<stop stop-color="white"/>
<stop offset="0.0001" stop-color="#D0D0D0" stop-opacity="0.65"/>
<stop offset="0.9999" stop-color="white"/>
<stop offset="1" stop-color="white"/>
</linearGradient>
<linearGradient id="paint3_linear_2916_2401" x1="120.203" y1="37.5" x2="120.203" y2="103.5" gradientUnits="userSpaceOnUse">
<stop offset="0.451" stop-color="#0060FE"/>
<stop offset="1" stop-color="#0085FF"/>
</linearGradient>
<linearGradient id="paint4_linear_2916_2401" x1="120.203" y1="51.5425" x2="120.203" y2="89.4574" gradientUnits="userSpaceOnUse">
<stop stop-color="#349DF0"/>
<stop offset="1" stop-color="#1E5A8A"/>
</linearGradient>
<linearGradient id="paint5_linear_2916_2401" x1="190.267" y1="63.4787" x2="190.267" y2="77.5213" gradientUnits="userSpaceOnUse">
<stop offset="0.451" stop-color="#0060FE"/>
<stop offset="1" stop-color="#0085FF"/>
</linearGradient>
<linearGradient id="paint6_linear_2916_2401" x1="261.145" y1="137.02" x2="272.869" y2="69.8615" gradientUnits="userSpaceOnUse">
<stop stop-color="white"/>
<stop offset="0.0001" stop-color="#D0D0D0" stop-opacity="0.65"/>
<stop offset="0.9999" stop-color="white"/>
<stop offset="1" stop-color="white"/>
</linearGradient>
<linearGradient id="paint7_linear_2916_2401" x1="271.564" y1="37.5" x2="271.564" y2="103.5" gradientUnits="userSpaceOnUse">
<stop offset="0.451" stop-color="#0060FE"/>
<stop offset="1" stop-color="#0085FF"/>
</linearGradient>
<linearGradient id="paint8_linear_2916_2401" x1="254.01" y1="56.4583" x2="254.01" y2="84.5416" gradientUnits="userSpaceOnUse">
<stop offset="0.451" stop-color="#0060FE"/>
<stop offset="1" stop-color="#0085FF"/>
</linearGradient>
<linearGradient id="paint9_linear_2916_2401" x1="289.116" y1="56.4575" x2="289.116" y2="84.5426" gradientUnits="userSpaceOnUse">
<stop offset="0.451" stop-color="#0060FE"/>
<stop offset="1" stop-color="#0085FF"/>
</linearGradient>
</defs>
</svg>
