<svg width="32" height="32" viewBox="0 0 21 21" fill="none" xmlns="http://www.w3.org/2000/svg">
<circle cx="10.959" cy="10.0138" r="10" fill="url(#paint0_radial_32024_10480)"/>
<circle cx="10.959" cy="10.0138" r="10" fill="url(#paint1_radial_32024_10480)"/>
<path d="M10.9595 4.01379C9.33003 4.01379 9.12553 4.02092 8.48552 4.05004C7.84676 4.07929 7.41076 4.18042 7.02926 4.32879C6.63463 4.48204 6.29987 4.68704 5.96637 5.02067C5.63262 5.35417 5.42761 5.68892 5.27386 6.08342C5.12511 6.46504 5.02386 6.90117 4.99511 7.53967C4.96648 8.17967 4.95898 8.38429 4.95898 10.0138C4.95898 11.6433 4.96623 11.8472 4.99523 12.4872C5.02461 13.1259 5.12574 13.5619 5.27399 13.9434C5.42736 14.338 5.63237 14.6728 5.96599 15.0063C6.29937 15.34 6.63413 15.5455 7.02851 15.6988C7.41026 15.8472 7.84639 15.9483 8.48502 15.9775C9.12503 16.0067 9.3294 16.0138 10.9588 16.0138C12.5884 16.0138 12.7923 16.0067 13.4323 15.9775C14.0711 15.9483 14.5076 15.8472 14.8893 15.6988C15.2838 15.5455 15.6181 15.34 15.9515 15.0063C16.2852 14.6728 16.4902 14.338 16.644 13.9435C16.7915 13.5619 16.8927 13.1258 16.9227 12.4873C16.9515 11.8473 16.959 11.6433 16.959 10.0138C16.959 8.38429 16.9515 8.17979 16.9227 7.53979C16.8927 6.90104 16.7915 6.46504 16.644 6.08354C16.4902 5.68892 16.2852 5.35417 15.9515 5.02067C15.6177 4.68692 15.284 4.48192 14.889 4.32879C14.5065 4.18042 14.0702 4.07929 13.4314 4.05004C12.7914 4.02092 12.5877 4.01379 10.9577 4.01379H10.9595ZM10.4213 5.09504C10.581 5.09479 10.7593 5.09504 10.9595 5.09504C12.5616 5.09504 12.7514 5.10079 13.3841 5.12954C13.9691 5.15629 14.2866 5.25404 14.4981 5.33617C14.7781 5.44492 14.9777 5.57492 15.1876 5.78492C15.3976 5.99492 15.5276 6.19492 15.6366 6.47492C15.7187 6.68617 15.8166 7.00367 15.8432 7.58867C15.872 8.22117 15.8782 8.41117 15.8782 10.0124C15.8782 11.6137 15.872 11.8037 15.8432 12.4362C15.8165 13.0212 15.7187 13.3387 15.6366 13.5499C15.5278 13.8299 15.3976 14.0293 15.1876 14.2392C14.9776 14.4492 14.7782 14.5792 14.4981 14.6879C14.2868 14.7704 13.9691 14.8679 13.3841 14.8947C12.7516 14.9234 12.5616 14.9297 10.9595 14.9297C9.3574 14.9297 9.16753 14.9234 8.53502 14.8947C7.95002 14.8677 7.63251 14.7699 7.42088 14.6878C7.14088 14.579 6.94088 14.449 6.73088 14.239C6.52088 14.029 6.39087 13.8295 6.28187 13.5494C6.19975 13.3382 6.10187 13.0207 6.07525 12.4357C6.0465 11.8032 6.04075 11.6132 6.04075 10.0109C6.04075 8.40867 6.0465 8.21967 6.07525 7.58717C6.102 7.00217 6.19975 6.68467 6.28187 6.47317C6.39062 6.19317 6.52088 5.99317 6.73088 5.78317C6.94088 5.57317 7.14088 5.44317 7.42088 5.33417C7.63239 5.25167 7.95002 5.15417 8.53502 5.12729C9.08853 5.10229 9.30303 5.09479 10.4213 5.09354V5.09504ZM14.1623 6.09129C13.7648 6.09129 13.4423 6.41342 13.4423 6.81104C13.4423 7.20854 13.7648 7.53104 14.1623 7.53104C14.5598 7.53104 14.8823 7.20854 14.8823 6.81104C14.8823 6.41354 14.5598 6.09104 14.1623 6.09104V6.09129ZM10.9595 6.93254C9.2579 6.93254 7.87826 8.31217 7.87826 10.0138C7.87826 11.7154 9.2579 13.0944 10.9595 13.0944C12.6612 13.0944 14.0403 11.7154 14.0403 10.0138C14.0403 8.31217 12.6611 6.93254 10.9594 6.93254H10.9595ZM10.9595 8.01379C12.0641 8.01379 12.9596 8.90917 12.9596 10.0138C12.9596 11.1183 12.0641 12.0138 10.9595 12.0138C9.85491 12.0138 8.95953 11.1183 8.95953 10.0138C8.95953 8.90917 9.85491 8.01379 10.9595 8.01379Z" fill="white"/>
<defs>
<radialGradient id="paint0_radial_32024_10480" cx="0" cy="0" r="1" gradientUnits="userSpaceOnUse" gradientTransform="translate(6.27151 21.5542) rotate(-90) scale(19.8215 18.4355)">
<stop stop-color="#FFDD55"/>
<stop offset="0.1" stop-color="#FFDD55"/>
<stop offset="0.5" stop-color="#FF543E"/>
<stop offset="1" stop-color="#C837AB"/>
</radialGradient>
<radialGradient id="paint1_radial_32024_10480" cx="0" cy="0" r="1" gradientUnits="userSpaceOnUse" gradientTransform="translate(-2.39112 1.45456) rotate(78.6806) scale(8.86028 36.5225)">
<stop stop-color="#3771C8"/>
<stop offset="0.128" stop-color="#3771C8"/>
<stop offset="1" stop-color="#6600FF" stop-opacity="0"/>
</radialGradient>
</defs>
</svg>
